<svg version="1.1" id="Layer_1" xmlns="http://www.w3.org/2000/svg" xmlns:xlink="http://www.w3.org/1999/xlink" x="0px"
     y="0px"
     viewBox="0 0 24 24" style="enable-background:new 0 0 24 24;" xml:space="preserve">
	<path id="icon" d="M21.7,4.6c0.1,0.2,0.1,0.4,0,0.7s-0.2,0.4-0.3,0.6C21.2,6,21,6.1,20.8,6.2c-0.1,0-0.1,0-0.2,0L9.3,8.3
		C9.3,8.9,9,9.4,8.6,9.9c-0.5,0.5-1.1,0.8-1.8,0.9C5.9,11.1,4.9,11,4,10.8C3,10.5,2.5,10,2.3,9.4c-0.2-0.6,0.1-1.3,0.9-2
		S4.7,6.2,5.6,6c0.5-0.1,1-0.1,1.4-0.1c0.4,0.1,0.8,0.2,1.2,0.4C8.6,6.5,8.8,6.7,9,7l11-3.3c0.4-0.1,0.7-0.1,1,0.1
		S21.6,4.2,21.7,4.6z M3.6,17c-0.2-0.2-0.2-0.3-0.2-0.6s0.1-0.4,0.2-0.6s0.3-0.2,0.6-0.2c0.2,0,0.4,0.1,0.6,0.2
		C4.9,16,5,16.2,5,16.5S4.9,16.9,4.7,17c-0.2,0.2-0.3,0.2-0.6,0.2C3.9,17.3,3.8,17.2,3.6,17z M5.2,13.9C5.1,13.7,5,13.5,5,13.3
		c0-0.2,0.1-0.4,0.2-0.6c0.2-0.2,0.3-0.2,0.6-0.2s0.4,0.1,0.6,0.2c0.2,0.2,0.2,0.3,0.2,0.6c0,0.2-0.1,0.4-0.2,0.6
		C6.2,14,6,14.1,5.8,14.1S5.4,14,5.2,13.9z M5.2,20.1C5.1,20,5,19.8,5,19.6c0-0.2,0.1-0.4,0.2-0.6c0.2-0.2,0.3-0.2,0.6-0.2
		s0.4,0.1,0.6,0.2c0.2,0.2,0.2,0.3,0.2,0.6c0,0.2-0.1,0.4-0.2,0.6c-0.2,0.2-0.3,0.2-0.6,0.2S5.4,20.3,5.2,20.1z M6.9,17
		c-0.2-0.2-0.2-0.3-0.2-0.6s0.1-0.4,0.2-0.6c0.2-0.2,0.4-0.2,0.6-0.2s0.4,0.1,0.6,0.2c0.2,0.2,0.2,0.3,0.2,0.6S8.2,16.9,8,17
		c-0.2,0.2-0.3,0.2-0.6,0.2S7.1,17.2,6.9,17z"/>
</svg>
