<svg version="1.1" id="Layer_1" xmlns="http://www.w3.org/2000/svg" xmlns:xlink="http://www.w3.org/1999/xlink" x="0px" y="0px"
	 viewBox="0 0 24 24" style="enable-background:new 0 0 24 24;" xml:space="preserve">
<path id="grain" d="M4.9,6.9c1.1,0.5,1.5,1,1.3,1.7C6.1,9,5.8,9.2,5.4,9.2c-0.6,0-1-0.3-1.4-1S3.3,6.8,3.2,6.1S3.2,5,3.2,4.8
	c0,0,0,0.1,0,0.1c0,0.1,0,0.2,0.1,0.4c0.1,0.2,0.1,0.3,0.2,0.5C3.6,6,3.8,6.2,4,6.4S4.5,6.7,4.9,6.9z M4.9,9.6
	c1.1,0.5,1.5,1,1.3,1.7c-0.1,0.4-0.4,0.6-0.8,0.6c-0.6,0-1-0.3-1.4-1c-0.4-0.7-0.6-1.4-0.7-2.1c-0.1-0.7-0.1-1.1,0-1.3
	c0,0,0,0.1,0,0.2c0,0.1,0,0.2,0.1,0.4c0.1,0.2,0.1,0.3,0.2,0.5C3.6,8.7,3.8,8.9,4,9.1S4.5,9.5,4.9,9.6z M4.9,12.4
	c1.1,0.4,1.5,1,1.3,1.7c-0.1,0.4-0.4,0.6-0.8,0.6c-0.6,0-1-0.3-1.4-1c-0.4-0.7-0.6-1.4-0.7-2.1s-0.1-1.1,0-1.3c0,0,0,0.1,0,0.1
	c0,0,0,0.1,0,0.2s0,0.2,0.1,0.3s0.1,0.2,0.2,0.4s0.2,0.3,0.3,0.4s0.3,0.3,0.5,0.4C4.4,12.2,4.6,12.3,4.9,12.4z M4.9,15.3
	c1.1,0.5,1.5,1,1.3,1.7c-0.1,0.4-0.4,0.6-0.8,0.6c-0.6,0-1-0.3-1.4-1c-0.4-0.7-0.6-1.4-0.7-2.1s-0.1-1.1,0-1.3c0,0,0,0.1,0,0.1
	c0,0.1,0,0.2,0.1,0.4c0.1,0.2,0.1,0.3,0.2,0.5c0.1,0.2,0.3,0.4,0.5,0.6S4.5,15.1,4.9,15.3z M6.5,7.1c-0.6,0-0.9-0.3-0.9-1
	s0.1-1.3,0.3-1.9c0.2-0.6,0.4-1.1,0.5-1.3c0,0.1,0.1,0.2,0.2,0.3c0.1,0.1,0.2,0.4,0.3,0.8C7,4.3,7.1,4.7,7.2,5
	c0.1,0.3,0.1,0.6,0.2,1c0,0.3,0,0.6-0.2,0.8S6.8,7.1,6.5,7.1z M5.9,20.5L5.7,18c0,0,0-0.1,0.1-0.1c0,0,0.1,0,0.3,0
	C6.2,18,6.3,18,6.4,18c0,0,0.1,0,0.2,0c0.1,0,0.1,0,0.2,0c0,0,0.1,0,0.1,0c0,0,0.1,0,0.1,0s0,0,0,0.1l-0.2,2.4
	c0,0.1-0.1,0.2-0.2,0.3c-0.2,0-0.3,0-0.4,0C6,20.6,5.9,20.6,5.9,20.5z M7.4,9.2C7,9.2,6.7,9,6.6,8.6C6.4,7.9,6.9,7.4,7.9,6.9
	C8.4,6.7,8.8,6.4,9.1,6c0.3-0.4,0.4-0.6,0.4-0.9V4.8c0.1,0.1,0.1,0.4,0,0.9c-0.1,0.5-0.2,1-0.3,1.5s-0.4,1-0.7,1.4
	C8.2,9,7.8,9.2,7.4,9.2z M7.4,11.9c-0.4,0-0.7-0.2-0.8-0.6c-0.2-0.6,0.3-1.2,1.3-1.7c0.5-0.3,0.9-0.6,1.2-0.9
	c0.3-0.3,0.4-0.6,0.4-0.9V7.5c0.1,0.2,0.1,0.6,0,1.3c-0.1,0.7-0.3,1.4-0.7,2.1C8.4,11.6,8,11.9,7.4,11.9z M7.4,14.7
	c-0.4,0-0.7-0.2-0.8-0.6c-0.2-0.7,0.3-1.2,1.3-1.7c0.5-0.3,0.9-0.6,1.2-0.9c0.3-0.3,0.4-0.6,0.4-0.9v-0.4c0.1,0.1,0.1,0.4,0,0.9
	c-0.1,0.5-0.2,1-0.3,1.5s-0.4,1-0.7,1.4C8.2,14.5,7.8,14.7,7.4,14.7z M7.4,17.6c-0.4,0-0.7-0.2-0.8-0.6c-0.2-0.7,0.3-1.2,1.3-1.7
	c0.5-0.2,0.9-0.5,1.2-0.9s0.4-0.6,0.4-0.9v-0.4c0.1,0.1,0.1,0.4,0,0.9c-0.1,0.5-0.2,1-0.3,1.5c-0.1,0.5-0.4,1-0.7,1.4
	C8.2,17.4,7.8,17.6,7.4,17.6z M12.4,15.3c0.8,0.9,0.9,1.6,0.4,2.1c-0.3,0.3-0.6,0.4-1,0.2c-0.5-0.2-0.8-0.7-0.8-1.5
	c-0.1-0.8,0-1.5,0.2-2.2c0.2-0.7,0.4-1.1,0.5-1.2c0,0.1-0.1,0.2-0.1,0.3c0,0.2,0,0.5,0.1,0.9C11.7,14.4,12,14.9,12.4,15.3z
	 M11.9,20.8C11.8,21,11.7,21,11.6,21s-0.3-0.1-0.4-0.2c-0.1-0.1-0.2-0.2-0.1-0.3l0.8-2.3c0,0,0.1-0.1,0.1-0.1s0.1,0,0.2,0.1
	s0.2,0.1,0.3,0.2s0.2,0.1,0.3,0.1c0.1,0,0.2,0.1,0.3,0.1c0,0,0.1,0.1,0,0.1L11.9,20.8z M13.6,12.7c0.8,0.9,0.9,1.6,0.4,2.1
	c-0.3,0.3-0.6,0.4-1,0.2c-0.5-0.2-0.8-0.7-0.8-1.5c-0.1-0.8,0-1.5,0.2-2.2s0.4-1.1,0.5-1.2c0,0,0,0,0,0.1c0,0,0,0.1-0.1,0.2
	c0,0.1-0.1,0.2-0.1,0.3s0,0.2,0,0.4s0,0.3,0.1,0.5c0,0.2,0.1,0.3,0.2,0.5C13.2,12.3,13.4,12.5,13.6,12.7z M13.6,18.5
	c-0.4-0.2-0.5-0.5-0.5-0.9c0.2-0.6,0.8-1,1.9-1c0.3,0,0.5,0,0.7-0.1s0.4-0.1,0.6-0.2c0.2-0.1,0.3-0.1,0.4-0.2
	c0.1-0.1,0.2-0.2,0.3-0.3s0.1-0.2,0.2-0.2c0-0.1,0.1-0.1,0.1-0.1v-0.1c0,0.2-0.2,0.6-0.5,1.2c-0.4,0.6-0.9,1.1-1.5,1.6
	C14.7,18.6,14.2,18.7,13.6,18.5z M14.7,10.2c0.8,0.9,0.9,1.6,0.4,2.1c-0.3,0.3-0.6,0.3-1,0.2c-0.5-0.2-0.8-0.7-0.9-1.5
	c-0.1-0.8,0-1.5,0.2-2.2s0.4-1.1,0.5-1.2c0,0.1-0.1,0.2-0.1,0.3c0,0.2,0,0.5,0.1,0.9C14.1,9.3,14.4,9.8,14.7,10.2z M14.8,15.9
	c-0.4-0.2-0.5-0.5-0.4-1c0.1-0.6,0.8-0.9,1.8-0.9c0.4,0,0.7,0,1-0.1s0.5-0.2,0.7-0.3s0.3-0.2,0.4-0.4c0.1-0.1,0.2-0.2,0.2-0.3l0-0.1
	c0,0.1-0.1,0.4-0.3,0.8c-0.2,0.4-0.5,0.8-0.9,1.2c-0.4,0.4-0.8,0.8-1.2,1C15.7,16.1,15.2,16.1,14.8,15.9z M15.9,7.7
	c0.8,0.9,0.9,1.6,0.4,2.1c-0.3,0.3-0.6,0.4-1,0.2c-0.5-0.2-0.8-0.7-0.9-1.5s0-1.5,0.2-2.2s0.4-1.1,0.5-1.2c0,0.1-0.1,0.2-0.2,0.3
	c-0.1,0.2,0,0.5,0.1,0.9S15.5,7.3,15.9,7.7z M16,13.3c-0.4-0.2-0.6-0.5-0.5-0.9c0.2-0.6,0.8-1,1.9-1c0.4,0,0.7,0,1-0.1
	s0.5-0.2,0.7-0.3c0.2-0.1,0.3-0.2,0.4-0.4c0.1-0.1,0.2-0.2,0.2-0.3l0.1-0.1c0,0.2-0.2,0.6-0.6,1.2s-0.9,1.1-1.5,1.6
	C17.1,13.5,16.5,13.6,16,13.3z M17.2,10.9c-0.4-0.2-0.6-0.5-0.5-1C16.9,9.3,17.5,9,18.6,9c0.4,0,0.7,0,1-0.1
	c0.3-0.1,0.5-0.2,0.7-0.3c0.2-0.1,0.3-0.2,0.4-0.4c0.1-0.1,0.2-0.2,0.2-0.3L21,7.8C21,8,20.8,8.4,20.4,9c-0.4,0.6-0.9,1.1-1.5,1.6
	C18.3,11,17.7,11.1,17.2,10.9z M17.3,8.6c-0.3-0.2-0.5-0.4-0.5-0.7s0-0.6,0.2-1c0.2-0.3,0.4-0.7,0.7-1c0.3-0.3,0.5-0.6,0.8-0.8
	c0.2-0.2,0.4-0.4,0.5-0.4c0,0.2,0,0.5,0,0.8c0,0.3-0.1,0.8-0.1,1.5s-0.3,1.1-0.5,1.5S17.7,8.8,17.3,8.6z"/>
</svg>
