<svg version="1.1" id="Layer_1" xmlns="http://www.w3.org/2000/svg" xmlns:xlink="http://www.w3.org/1999/xlink" x="0px" y="0px"
	 viewBox="0 0 90.5 53.4" style="enable-background:new 0 0 90.5 53.4;" xml:space="preserve">
<g id="icon">
	<path fill="#2b9302" d="M13.1,36.1H6.9v17H0V0h15c4.3,0.6,7.9,2.3,10.8,5.3c3.5,3.5,5.3,7.8,5.3,12.7c0,5-1.8,9.3-5.3,12.8
		c-2.4,2.4-4.3,3.8-5.6,4.1L32.1,53h-8.3L13.1,36.1z M6.9,6.9v22.3h6.3c3,0,5.7-1.1,7.8-3.3c2.2-2.2,3.3-4.8,3.3-7.9
		s-1.1-5.7-3.3-7.9s-4.8-3.2-7.8-3.2C13.2,6.9,6.9,6.9,6.9,6.9z"/>
	<path fill="#2b9302" d="M46.7,0h6v31.9h4.7v6.9h-4.7V53h-6.9V38.7H24.1L46.7,0z M45.9,15.5l-9.8,16.4h9.8V15.5z"/>
	<path fill="#2b9302" d="M65.7,14.3c1.2-0.3,2.5-0.4,3.9-0.4c2.5,0,4.9,0.4,7.1,1.2c5.1,1.7,8.9,5,11.4,9.7c1.6,2.9,2.4,5.9,2.4,9
		c0,1.9-0.3,3.8-0.9,5.8c-1.6,5.1-4.7,9-9.4,11.5c-2.9,1.5-5.8,2.3-8.9,2.3c-1.9,0-3.9-0.3-5.9-0.9c-4.1-1.3-7.7-3.9-10.7-8l4.8-5.4
		c2.5,3.6,5.1,5.9,7.9,6.7c1.3,0.4,2.5,0.6,3.7,0.6c1.9,0,3.8-0.5,5.7-1.5c3-1.6,5-4.1,6-7.4c0.4-1.3,0.6-2.5,0.6-3.7
		c0-1.9-0.5-3.8-1.5-5.7c-1.6-3-4.1-5.1-7.4-6.3c-1.4-0.5-3-0.8-4.8-0.8c-2.4,0-5.4,0.6-9.1,1.8l-4.1-3.6l6-16.5V0H82v6.9H68.4
		L65.7,14.3z"/>
</g>
</svg>
