<svg version="1.1" id="Layer_1" xmlns="http://www.w3.org/2000/svg" xmlns:xlink="http://www.w3.org/1999/xlink" x="0px" y="0px"
	 viewBox="0 0 500 190.6" style="enable-background:new 0 0 500 190.6;" xml:space="preserve">
<g id="vatterns-enkla">
	<path fill="#ed6239" d="M483,51c-0.8-1-1.7-1.7-2.7-2.2c-1-0.5-2-0.7-3.1-0.7c-1.3,0-2.5,0.3-3.4,1c-1,0.7-1.5,1.5-1.6,2.6
		c-0.1,0.7,0.4,1.3,1.4,1.9c1.1,0.6,2.9,1.4,5.2,2.4c4.1,1.8,7.6,3.6,10.3,5.2c2.8,1.7,5.3,4.1,7.5,7.2c2.2,3.1,3.3,6.9,3.3,11.4
		c0,4.6-1.1,8.5-3.4,11.7c-2.3,3.2-5.3,5.7-9.1,7.3c-3.8,1.7-7.9,2.5-12.3,2.5c-4.7,0-9.3-0.9-13.7-2.8c-4.5-1.9-8.2-4.6-11.1-8.1
		c-0.3-0.3-0.4-0.7-0.4-1.3v-0.6c0-0.8,0.3-1.3,1-1.6l12.2-8.5c0.6-0.4,1.1-0.6,1.4-0.6c0.5,0,1,0.2,1.4,0.7
		c1.2,1.4,2.7,2.5,4.2,3.2c1.6,0.7,3.2,1.1,4.8,1.1c1.6,0,3-0.3,4.1-0.9c1.1-0.6,1.6-1.4,1.5-2.4c0.1-0.8-0.4-1.5-1.5-2.1
		c-1.1-0.6-2.9-1.4-5.2-2.4c-3.9-1.6-7.3-3.3-10.2-5c-2.9-1.7-5.4-4.1-7.5-7c-2.2-3-3.2-6.7-3.2-11.1c0-4.7,1.1-8.7,3.4-12.1
		c2.3-3.4,5.2-5.9,9-7.6c3.7-1.7,7.7-2.6,11.9-2.6c4,0,7.9,0.8,11.6,2.3c3.7,1.5,6.9,3.7,9.5,6.6c0.4,0.4,0.6,1,0.6,1.9
		c-0.2,0.8-0.5,1.3-1,1.7L485.8,51c-0.6,0.4-1.1,0.6-1.6,0.6C483.7,51.6,483.3,51.4,483,51z"/>
	<path fill="#ed6239" d="M441.5,98.1c0,0.7-0.2,1.2-0.6,1.7c-0.4,0.5-1,0.7-1.7,0.7H425c-0.7,0-1.2-0.2-1.7-0.7
		c-0.5-0.5-0.7-1.1-0.7-1.7V61.8c0-2.9-1.1-5.3-3.2-7.3c-2.1-2-4.6-2.9-7.6-2.9c-3,0-5.5,1-7.7,2.9c-2.2,1.9-3.3,4.3-3.4,7.2v36.5
		c0,0.7-0.2,1.2-0.6,1.7c-0.4,0.5-1,0.7-1.7,0.7h-14.2c-0.7,0-1.2-0.2-1.7-0.7c-0.5-0.5-0.7-1.1-0.7-1.7V33c0-0.7,0.2-1.2,0.7-1.7
		c0.5-0.5,1.1-0.7,1.7-0.7h14.2c0.7,0,1.2,0.2,1.7,0.7c0.4,0.5,0.6,1.1,0.6,1.7v1.7c3.4-1.4,7.1-2.2,11.1-2.2
		c5.3,0,10.2,1.3,14.8,3.9c4.6,2.6,8.2,6.1,10.9,10.6c2.7,4.5,4,9.4,4,14.7V98.1z"/>
	<path fill="#ed6239" d="M363.9,50.3c-1.1-0.3-2-0.4-2.9-0.4c-2.9,0-5.4,1.1-7.5,3.2c-2.2,2.1-3.2,4.7-3.2,7.8v37.5
		c0,0.6-0.2,1.1-0.6,1.6c-0.4,0.5-1,0.7-1.7,0.7h-13.9c-0.6,0-1.1-0.2-1.5-0.7c-0.4-0.5-0.6-1-0.6-1.6V33.2c0-0.7,0.2-1.2,0.6-1.7
		c0.4-0.5,0.9-0.7,1.5-0.7H348c0.7,0,1.2,0.2,1.6,0.6c0.4,0.4,0.6,0.9,0.7,1.5c3.1-1.1,6.3-1.7,9.6-1.7c4.1,0,8,0.8,11.8,2.3
		c0.6,0.3,1,0.8,1.3,1.4c0.2,0.6,0.1,1.1-0.1,1.7l-6.3,12.5c-0.4,0.9-1,1.3-1.9,1.3C364.4,50.4,364.1,50.4,363.9,50.3z"/>
	<path fill="#ed6239" d="M286.4,29.2c6.6,0,12.7,1.6,18.3,4.9c5.6,3.3,10,7.7,13.3,13.3c3.3,5.6,4.9,11.7,4.9,18.2
		c0,1.8-0.1,3.6-0.4,5.3c-0.1,0.7-0.4,1.2-0.9,1.6c-0.5,0.4-1,0.6-1.6,0.6h-48.6c1.3,2.8,3.4,5,6.1,6.8c2.7,1.7,5.7,2.6,8.8,2.6
		c3.7,0,7.1-1.1,10.2-3.4c0.4-0.4,0.9-0.6,1.6-0.6c0.5,0,1.1,0.2,1.7,0.7l10.5,10.5c0.5,0.7,0.7,1.3,0.7,1.9c0,0.7-0.3,1.2-0.9,1.7
		c-3.3,2.9-6.9,5.1-11,6.6c-4.1,1.5-8.4,2.3-12.9,2.3c-6.6,0-12.7-1.6-18.2-4.9c-5.6-3.3-10-7.7-13.2-13.3
		c-3.3-5.6-4.9-11.7-4.9-18.3c0-6.5,1.6-12.6,4.9-18.2c3.3-5.6,7.7-10,13.2-13.3C273.7,30.8,279.8,29.2,286.4,29.2z M301.3,58.2
		c-1.3-2.9-3.4-5.1-6.1-6.8c-2.7-1.7-5.7-2.5-8.8-2.5c-3.3,0-6.2,0.8-8.9,2.5c-2.7,1.7-4.7,4-6,6.8H301.3z"/>
	<path fill="#ed6239" d="M195.3,98.7c-0.3,0.5-0.8,0.8-1.4,0.9c-2.7,0.7-5.5,1-8.3,1c-5.6,0-10.6-1.3-15.2-4
		c-4.6-2.7-8.1-6.4-10.8-11.2c-2.6-4.8-4-10.2-4-16.4V54.6h-6c-0.7,0-1.2-0.2-1.7-0.7c-0.4-0.5-0.6-1.1-0.6-1.7V37.6
		c0-0.7,0.2-1.2,0.6-1.7c0.4-0.5,1-0.7,1.7-0.7h6V2.4c0-0.7,0.2-1.2,0.7-1.7c0.5-0.5,1.1-0.7,1.7-0.7h14.5c0.7,0,1.2,0.2,1.7,0.7
		c0.5,0.5,0.7,1.1,0.7,1.7v32.8h12.1c0.7,0,1.2,0.2,1.7,0.7c0.5,0.5,0.7,1.1,0.7,1.7v14.5c0,0.7-0.2,1.2-0.7,1.7
		c-0.5,0.5-1.1,0.7-1.7,0.7h-12.1V69c0,8.1,4,12.2,11.9,12.2c1.8,0,3.8-0.2,5.9-0.7h0.6c0.6,0,1.1,0.2,1.4,0.6
		c0.6,0.4,0.9,1,0.9,1.9v14.4C195.8,97.7,195.7,98.2,195.3,98.7z"/>
	<path fill="#ed6239" d="M245.9,98.7c-0.3,0.5-0.8,0.8-1.4,0.9c-2.7,0.7-5.5,1-8.3,1c-5.6,0-10.6-1.3-15.2-4
		c-4.6-2.7-8.1-6.4-10.8-11.2c-2.6-4.8-4-10.2-4-16.4V54.6h-6c-0.7,0-1.2-0.2-1.7-0.7c-0.4-0.5-0.6-1.1-0.6-1.7V37.6
		c0-0.7,0.2-1.2,0.6-1.7c0.4-0.5,1-0.7,1.7-0.7h6V2.4c0-0.7,0.2-1.2,0.7-1.7c0.5-0.5,1.1-0.7,1.7-0.7h14.5c0.7,0,1.2,0.2,1.7,0.7
		c0.5,0.5,0.7,1.1,0.7,1.7v32.8h12.1c0.7,0,1.2,0.2,1.7,0.7c0.5,0.5,0.7,1.1,0.7,1.7v14.5c0,0.7-0.2,1.2-0.7,1.7
		c-0.5,0.5-1.1,0.7-1.7,0.7h-12.1V69c0,8.1,4,12.2,11.9,12.2c1.8,0,3.8-0.2,5.9-0.7h0.6c0.6,0,1.1,0.2,1.4,0.6
		c0.6,0.4,0.9,1,0.9,1.9v14.4C246.4,97.7,246.3,98.2,245.9,98.7z"/>
	<g id="Layer_3">
		<path fill="#ed6239" d="M103.3,30.6c5.7,0,11.1,1.3,16.1,3.9v-1.6c0-0.7,0.2-1.2,0.6-1.7s1-0.6,1.7-0.6h14.2c0.7,0,1.2,0.2,1.7,0.6
			c0.5,0.4,0.7,1,0.7,1.7v65.4c0,0.7-0.2,1.2-0.7,1.7c-0.5,0.4-1.1,0.6-1.7,0.6h-14.2c-0.7,0-1.2-0.2-1.7-0.6s-0.6-1-0.6-1.7v-1.6
			c-5.2,2.6-10.5,3.9-16.1,3.9c-4.7,0-9.2-0.9-13.4-2.7c-4.3-1.8-8-4.3-11.3-7.5v-0.1c-3.3-3.3-5.8-7-7.5-11.2
			c-1.8-4.2-2.7-8.7-2.7-13.5c0-4.7,0.9-9.2,2.7-13.4c1.8-4.3,4.3-8,7.5-11.3c3.3-3.3,7-5.8,11.3-7.5
			C94.1,31.5,98.6,30.6,103.3,30.6z M119.4,65.9v-0.7c-0.2-4.4-1.8-8-4.7-10.9c-3-3.2-6.8-4.7-11.4-4.7c-4.5,0-8.3,1.5-11.4,4.6
			c-3.1,3.3-4.6,7-4.6,11.4c0,4.4,1.5,8.2,4.6,11.5c3.1,3.1,6.8,4.6,11.4,4.6c4.5,0,8.3-1.5,11.4-4.6v-0.1
			C117.6,74,119.2,70.4,119.4,65.9z"/>
		<path fill="#ed6239" d="M119.4,0c2.7,0,4.9,0.9,6.8,2.7c1.8,1.8,2.7,4.1,2.7,6.8c0,2.6-0.9,4.8-2.7,6.7c-1.8,1.9-4.1,2.8-6.8,2.8
			c-2.6,0-4.8-0.9-6.7-2.8c-1.9-1.9-2.8-4.1-2.8-6.7c0-2.7,0.9-4.9,2.8-6.8C114.6,0.9,116.8,0,119.4,0z"/>
		<path fill="#ed6239" d="M93.9,0c2.7,0,4.9,0.9,6.8,2.7c1.8,1.8,2.7,4.1,2.7,6.8c0,2.6-0.9,4.8-2.7,6.7C98.8,18,96.6,19,93.9,19
			c-2.6,0-4.8-0.9-6.7-2.8c-1.9-1.9-2.8-4.1-2.8-6.7c0-2.7,0.9-4.9,2.8-6.8C89.1,0.9,91.3,0,93.9,0z"/>
	</g>
	<path fill="#ed6239" d="M63.2,33.8L41.5,98.8c-0.5,1.1-1.2,1.7-2.3,1.7H24.3c-1.2,0-2-0.6-2.3-1.7L0.2,33.8c-0.3-0.7-0.2-1.4,0.3-2.2
		c0.7-0.7,1.3-1,2-1h15.4c1.2,0,2,0.6,2.3,1.7l11.6,34.5l11.5-34.5c0.5-1.1,1.2-1.7,2.3-1.7h15.4c0.9,0,1.5,0.3,2,1
		c0.3,0.4,0.4,0.9,0.4,1.4C63.4,33.3,63.3,33.6,63.2,33.8z"/>
	<path d="M236.2,177.3l0.5,1.3c0.4,1,1,1.8,1.8,2.4c1.8,1.3,4.1,1.5,6.8,0.5c5.9-2.2,11.1-9.3,15.5-21.2c0.8-2.1,1.7-3.3,2.6-3.6
		c0.5-0.2,1.1-0.1,1.7,0.3c0.4,0.3,0.7,0.6,0.8,0.9c0.7,1.8-0.4,5.8-3.4,11.9c-2.3,4.8-5,9-8.3,12.7c-3.2,3.7-6.6,6.1-10,7.4
		c-3.6,1.3-6.8,1.1-9.8-0.6c-2-1.2-3.5-3.3-4.6-6.2c-3-8-2.1-17.3,2.6-27.7c3.8-8.5,8-13.6,12.5-15.3c1.2-0.5,2.5-0.5,3.8-0.1
		c1.6,0.5,2.7,1.6,3.3,3.2c0.9,2.5,0.9,6-0.1,10.5C250,163,244.8,170.9,236.2,177.3z M235.7,171.2c2.9-2.4,5-4.6,6.4-6.7
		c2.4-3.8,3.9-7.6,4.7-11.6c0.3-1.4,0.3-2.6-0.1-3.5c-0.3-0.9-1-1.3-1.9-0.9c-1.2,0.5-2.6,2-4.2,4.7
		C237.8,158,236.1,164,235.7,171.2z"/>
	<path d="M279.8,149c0.4-0.8,0.8-1.6,1.1-2.4c6.3-13.3,11.2-20.6,14.6-21.9c1.8-0.7,3.1,0,3.9,2c0.5,1.4,0.3,3.4-0.6,6
		c-5.2,13.9-6.2,24.9-3.3,33c1,2.6,2.6,4.8,4.9,6.7c1.1,0.8,1.7,1.6,1.9,2.2c0.2,0.6,0.1,1.2-0.2,2c-0.4,0.9-1,1.5-1.8,1.8
		c-1.9,0.7-4,0.1-6.3-1.9c-2.1-1.8-3.8-4.4-5-7.8c-2.4-6.4-2.6-14.4-0.6-23.9c-4.9,6.5-8.2,16-9.9,28.5c-0.5,3-1.5,4.9-3.2,5.5
		c-0.8,0.3-1.6,0.3-2.3-0.1c-0.9-0.4-1.6-1.1-1.9-2.2c-0.9-2.6-0.5-10.3,1.3-23.4c1-7,1.8-12.2,2.7-15.5c0.8-3.3,1.9-5.1,3.2-5.6
		c0.6-0.2,1.3-0.2,2.1,0.2c0.9,0.4,1.5,1.1,1.8,1.9c0.4,1,0.2,2.8-0.4,5.2C280.8,143,280.2,146.2,279.8,149z"/>
	<path d="M331.1,123.2c-0.3,8.8,0.3,15.1,1.8,19.1c0.7,1.9,1.7,3.4,2.9,4.4c1.5,1.3,3.1,1.6,4.7,1c3.2-1.2,6.1-4.7,8.8-10.6
		c1.8-3.8,3.1-7.4,3.9-11c0.5-2.4,1.3-3.7,2.4-4.1c1.1-0.4,1.8-0.1,2.2,1c0.7,1.8-0.2,6.3-2.4,13.5c-3.4,10.7-8.1,17.1-14.2,19.4
		c-3.7,1.3-6.9,0.5-9.7-2.5c-2.1-2.2-3.7-4.7-4.8-7.6c-0.9-2.4-1.6-6.2-2.3-11.4c-2.1,3.7-4.5,11.7-7.1,23.9
		c-0.7,3.3-1.7,5.2-3.1,5.7c-0.7,0.3-1.4,0.2-2.2-0.2c-0.8-0.5-1.3-1-1.5-1.7c-0.7-1.9-0.5-9.1,0.5-21.7
		c1.8-22.1,5.4-41.4,10.6-57.9c2.8-9,5.8-15.9,8.9-20.7c2.8-4.4,5.4-7,7.7-7.8c1-0.4,2.1-0.3,3.2,0.3c1.4,0.7,2.4,1.7,3,3.3
		c1.5,4,1.3,10-0.6,17.8c-2,8.1-6.6,18.7-13.8,31.8c-4,7.3-7.9,13.3-11.5,18c-0.2,1.5-0.6,5.7-1.2,12.7c3.6-8.6,6.6-14.7,9.2-18.4
		c1.7-2.3,4.1-5,7.3-8.1c2.2-2,3.8-3.3,4.9-3.7c0.6-0.2,1.2-0.2,1.9,0.1c0.7,0.2,1.2,0.7,1.4,1.4c0.6,1.6-0.1,3.1-2,4.5
		C337,116.1,333.9,119.3,331.1,123.2z M320.4,113.2c5.9-8,10.7-17.2,14.5-27.6c1.9-5.2,3.2-10,3.9-14.4c0.5-3.1,0.5-5.2,0.1-6.3
		c-0.4-1.1-1.1-1.5-2.1-1.1c-2.7,1-5.7,6.7-9.2,17.3C324.8,90,322.4,100.7,320.4,113.2z"/>
	<path d="M367.9,117.4c-0.1,4.2,0,7.6,0.1,10.1c0.1,2.5,0.4,4.3,0.7,5.2c0.4,1.2,1.2,1.6,2.4,1.1c1.7-0.6,3.3-3.1,4.8-7.3
		c0.7-2,1.6-5.6,2.6-10.6c0.4-2,1.1-3.2,2.2-3.6c1.2-0.5,2.1-0.1,2.5,1.1c0.8,2-0.1,7-2.5,15c-2.5,8.3-5.8,13.2-10,14.8
		c-1.8,0.7-3.6,0.4-5.3-0.6c-1.2-0.8-2.1-2-2.7-3.5c-1-2.7-1.5-6.6-1.7-11.9c-0.1-5.3,0.2-11.9,0.9-19.8c1.8-20.1,5-37.3,9.3-51.5
		c3.5-11.4,7.5-17.9,11.9-19.6c1.4-0.5,2.8-0.4,4.1,0.4c1.4,0.7,2.3,1.8,2.8,3.2c2.5,6.6,0.6,19.9-5.5,39.7
		c-2.8,8.8-6.6,18.1-11.4,27.7C371.9,109.7,370.1,113.1,367.9,117.4z M368.7,104.2c6.7-12.1,11.6-26,14.6-41.8
		c1.6-8.2,1.9-13.4,1.1-15.5c-0.4-1-1-1.4-1.9-1.1c-2.6,1-5.4,7.9-8.5,20.8C371.6,77.3,369.8,89.8,368.7,104.2z"/>
	<path d="M412.8,114.3c-0.5,3.3-1.2,6.2-2,8.7c-1.6,4.8-3.9,7.7-6.8,8.8c-2.6,0.9-5,0.5-7.3-1.4c-1.5-1.2-2.6-2.9-3.4-5
		c-1.9-5.3-2.4-11.7-1.5-19.3c1.1-8.4,3.5-15.5,7.4-21.2c2.5-3.7,5.3-6.2,8.5-7.3c2-0.7,3.9-0.7,5.7,0c1.5,0.7,2.6,1.7,3.1,3.1
		c0.4,1,0.5,2.6,0.4,4.8c1.1,0.7,1.8,1.5,2,2.2c0.4,1,0.3,2.9-0.2,5.6c-0.5,2.8-0.8,6.4-0.7,10.8c0,4.6,0.5,8.2,1.4,10.6
		c0.7,2,1.9,3.4,3.6,4.3c0.5,0.2,1.6,0.4,3.5,0.6c1.4,0.1,2.4,0.9,2.9,2.3c0.3,0.9,0.3,1.8-0.2,2.6c-0.5,0.9-1.2,1.5-2.1,1.8
		c-2.6,0.9-5.2,0.6-7.9-1c-2.2-1.3-3.8-3.3-4.8-6.1C413.9,118.2,413.4,116.6,412.8,114.3z M413.1,87.6c-1-0.8-1.9-1.4-2.7-1.6
		c-0.8-0.3-1.7-0.2-2.4,0c-3.6,1.3-6.4,5.9-8.2,13.8c-2.1,8.7-2.2,15.4-0.4,20.3c0.4,1.2,1,2,1.7,2.5c0.7,0.5,1.5,0.5,2.4,0.2
		c2.3-0.8,4-4.2,5.3-10.2c0.7-3.3,1.4-8,2-14.1c0.4-4,0.8-6.7,1.2-8C411.9,89.7,412.4,88.8,413.1,87.6z"/>
</g>
</svg>
