<svg version="1.1" id="Layer_1" xmlns="http://www.w3.org/2000/svg" xmlns:xlink="http://www.w3.org/1999/xlink" x="0px" y="0px"
	 viewBox="0 0 51.3 53.4" style="enable-background:new 0 0 51.3 53.4;" xml:space="preserve">
<g>
	<path id="icon" fill="#F20269" d="M12.3,0c5,2.2,7.5,5.4,7.5,9.5l4.1,5.3l2.1-1.8h0.7l-2.7,3.6l0.7,0.6h0.7C35.5,6.9,42.1,1.8,45.1,1.8
		c1.7,0,3,1,4.1,3c1.4,0,2.1,0.4,2.1,1.2c0,1.5-3.9,4.9-11.6,10.1l-9.6,8.9v1.2c4.1,5.9,7.5,12.4,10.3,19.6l-0.7,1.8h0.7l-3.4,4.2
		h-2.1v-1.2l-2.1,1.2l-8.9-18.4h-0.7c-4.4,4.7-9,11.4-13.7,20.2H8.2v-1.2l0.7-0.6L8.2,51v-0.6c2.3-4.8,6.4-11.3,12.3-19.6h0.7v-1.8
		C12.1,40,7.5,46.9,7.5,49.8L4.8,51c-1.5,0-3.1-1.4-4.8-4.2C0,44.6,5.5,36.3,16.4,22C12.2,15.2,9.7,10,8.9,6.5h0.7L6.8,0.6h0.7
		l0.7,0.6L12.3,0z M1.4,46.9l15-20.8c0.9,0,1.4-0.8,1.4-2.4h-0.7C9,32.9,3.8,40.6,1.4,46.9z M30.8,8.9h0.7l-4.8,4.2v-0.6L30.8,8.9z
		 M32.2,17.8l-1.4,1.8h0.7l1.4-1.8H32.2z M41.7,0.6h0.7L32.2,8.9h-0.7V8.3L41.7,0.6z M32.8,46.9v0.6l0.7,2.4h0.7v-2.4l-0.7-0.6H32.8
		z"/>
</g>
</svg>
