<svg version="1.1" id="Layer_1" xmlns="http://www.w3.org/2000/svg" xmlns:xlink="http://www.w3.org/1999/xlink" x="0px"
     y="0px"
     viewBox="0 0 90.5 62.6" style="enable-background:new 0 0 90.5 62.6;" xml:space="preserve">
<g id="grona-angar">
    <path fill="#34BC02" d="M14.2,4.3l0.1,0.4c0.1,0.5-0.1,1.1-0.4,1.8c-0.2,0.5-0.6,0.9-1,1c-0.7-1.8-2.1-2.8-4.2-2.8
            c-1.2,0-2.4,0.5-3.3,1.4C4.5,6.9,4,8,4,9.3c0,1.1,0.4,2.1,1.2,3l0,0c-1.2,0-2.3,0.3-3.3,0.9C0.6,14,0,14.8,0,15.9
            c0,1.4,0.9,2.2,2.4,2.2c0.1,0,0.2,0,0.3,0c0.9,0,1.9-0.4,2.9-1.2c2.4-1.8,4.8-2.6,7.4-2.6c2.8,0,5.3,1.2,7.2,3.5
            c2,2.3,2.9,5.2,2.9,8.5s-1,6.2-2.9,8.5s-4.4,3.5-7.2,3.5c-3.2,0-6.1-1.2-8.4-3.5c-2.4-2.2-3.5-5.1-3.5-8.4c0-1.7,0.3-3.3,1-4.8
            l0.1-0.2L2,21.3l-0.4-0.2L1.4,21l-0.2,0.2c-0.7,1.5-1,3.2-1,5.1c0,3.6,1.3,6.7,3.8,9.2c2.4,2.5,5.5,3.8,9.1,3.8s6.7-1.3,9.2-3.8
            s3.8-5.6,3.8-9.2c0-3.7-1.3-6.7-3.9-9.1c-2.5-2.5-5.6-3.8-9.2-3.8c-2.8,0-5.3,0.9-7.7,2.6c-0.5,0.4-1,0.6-1.4,0.6
            c-0.9,0-1.4-0.4-1.4-1.3c0-0.7,0.3-1.2,0.9-1.5c0.7-0.4,1.4-0.6,2.2-0.6c0.3,0,0.6,0,1,0.1c0.7,0.4,1.3,0.6,2.1,0.6
            c1.1,0,2.3-0.5,3.2-1.4c0.9-0.9,1.4-2,1.4-3.3V8.4C14,8.3,14.6,8,15.2,7.7c1-0.6,1.5-1.3,1.7-2L17,5.5l-0.2-0.1l-2-1L14.2,4.3
            L14.2,4.3z M8.8,12.9c-0.4,0-0.8-0.4-1.2-1.1C7.2,11,7,10.2,7,9.2s0.2-1.8,0.6-2.6c0.3-0.6,0.8-1,1.2-1c0.5,0,0.9,0.3,1.2,1
            c0.4,0.8,0.6,1.6,0.6,2.6S10.4,11,10,11.8C9.6,12.6,9.2,12.9,8.8,12.9L8.8,12.9z"/>
    <path fill="#34BC02" d="M22.9,4.7c-0.9,0-1.6,0.2-2.1,0.7V5.3h-0.2h-2.2h-0.2v0.2v20.7v0.2h0.2h2.2h0.2v-0.2v-19
            c0.1-0.5,0.3-0.8,0.5-1.1v0.1c0,0.7,0.3,1.5,1.6,1.5c1.3,0,1.6-0.8,1.6-1.5C24.5,5.3,24,4.7,22.9,4.7L22.9,4.7z"/>
    <path fill="#34BC02" d="M38.5,0c-0.9,0-1.4,0.5-1.4,1.5c0,0.9,0.5,1.4,1.4,1.4c0.5,0,0.8-0.3,1-0.5c0.3-0.3,0.5-0.6,0.5-1
            s-0.2-0.8-0.5-1C39.1,0.2,38.9,0,38.5,0L38.5,0z M35.4,0c-0.9,0-1.5,0.5-1.5,1.5c0,0.4,0.1,0.6,0.3,0.9c0.3,0.4,0.7,0.5,1.1,0.5
            c0.3,0,0.5-0.2,0.8-0.3c0.1,0,0.1-0.1,0.2-0.1c0.4-0.4,0.5-0.6,0.5-1c0-0.5-0.3-0.8-0.5-1C36,0.2,35.8,0,35.4,0L35.4,0z
             M36.9,4.7c-3.1,0-5.7,1.1-8,3.3c-2.2,2.2-3.3,4.9-3.3,8c0,3.2,1,5.7,3.3,8c2.3,2.2,5,3.3,8,3.3c3.2,0,5.7-1,8-3.3
            c2.2-2.3,3.3-5,3.3-8c0-3.1-1.1-5.8-3.3-8C42.7,5.9,40,4.7,36.9,4.7L36.9,4.7z M36.9,26.2c-2.3,0-4.3-1-6-3s-2.5-4.4-2.5-7.2
            c0-2.8,0.8-5.2,2.5-7.3c1.6-2,3.6-3,6-3c2.3,0,4.3,1,6,3c1.7,2.1,2.5,4.6,2.5,7.3c0,2.8-0.9,5.3-2.5,7.2
            C41.3,25.2,39.3,26.2,36.9,26.2L36.9,26.2z"/>
    <path fill="#34BC02" d="M55.9,5C54.2,5,53,5.6,52,6.9V5.7V5.5h-0.2h-2.2h-0.2v0.2v20.6v0.2h0.2h2.2H52v-0.2V9.2
            c0.2-1,0.6-1.8,1.3-2.4c0.7-0.6,1.6-0.9,2.5-0.9c0.5,0,0.9,0.3,1.4,1.1c0.4,0.7,0.7,1.6,0.7,2.8v16.6v0.2h0.3h2.2v-0.2h0.2V9.8
            c0-1.3-0.5-2.5-1.4-3.4C58.2,5.4,57.1,5,55.9,5L55.9,5z"/>
    <path fill="#34BC02" d="M73.5,4.7c-3.2,0-5.8,1.1-8,3.3c-2.2,2.1-3.4,4.8-3.4,8c0,3.1,1.1,5.7,3.4,8c2.2,2.2,4.9,3.4,8,3.4
            c3.6,0,6.4-1.3,8.6-3.8v2.9v0.2h0.2h2.2h0.2v-0.2V15.9c0-3.2-1.1-5.8-3.3-8C79.3,5.8,76.6,4.7,73.5,4.7L73.5,4.7z M73.4,26.4
            c-2.4,0-4.4-1-6-3c-1.7-2.1-2.5-4.6-2.5-7.3s0.9-5.3,2.5-7.3s3.6-3,6-3c2.5,0,4.5,1,6.1,3c1.7,2.1,2.5,4.6,2.5,7.3
            c0,2.9-0.8,5.3-2.5,7.3S75.8,26.4,73.4,26.4L73.4,26.4z"/>
    <path fill="#34BC02" d="M17.1,28c-3.2,0-5.8,1.1-8,3.3c-2.2,2.1-3.4,4.8-3.4,8c0,3.1,1.1,5.7,3.4,8c2.2,2.2,4.9,3.4,8,3.4
        c3.6,0,6.4-1.3,8.5-3.8v2.9V50h0.2H28h0.2v-0.2V39.2c0-3.2-1.1-5.8-3.3-8C22.9,29.1,20.2,28,17.1,28L17.1,28z M16.9,49.6
        c-2.4,0-4.4-1-6-3c-1.7-2.1-2.5-4.6-2.5-7.3S9.3,34,10.9,32s3.6-3,6-3c2.5,0,4.5,1,6.1,3c1.7,2.1,2.5,4.6,2.5,7.3
        c0,3-0.8,5.4-2.5,7.3C21.3,48.6,19.3,49.6,16.9,49.6L16.9,49.6z"/>
    <path fill="#34BC02" d="M36,28.2c-1.7,0-2.9,0.6-3.9,1.9V29v-0.3h-0.2h-2.2h-0.2v0.2v20.6v0.2h0.2h2.2h0.2v-0.2v-17
        c0.2-1,0.6-1.8,1.3-2.4c0.7-0.6,1.6-0.9,2.5-0.9c0.5,0,0.9,0.3,1.4,1.1c0.4,0.7,0.7,1.6,0.7,2.8v16.6v0.2h0.2h2.2v-0.2h0.1V33.1
        c0-1.3-0.5-2.5-1.4-3.4C38.3,28.7,37.2,28.2,36,28.2L36,28.2z"/>
    <path fill="#34BC02" d="M56.5,27.6l0.1,0.5c0.1,0.5-0.1,1.1-0.4,1.8c-0.2,0.5-0.6,0.9-1,1c-0.7-1.8-2.1-2.8-4.2-2.8
        c-1.2,0-2.4,0.5-3.3,1.4c-0.9,0.8-1.4,1.9-1.4,3.2c0,1.1,0.4,2.1,1.2,3l0,0c-1.2,0-2.3,0.3-3.3,0.9c-1.3,0.8-1.9,1.6-1.9,2.7
        c0,1.4,0.9,2.2,2.5,2.2c0.1,0,0.2,0,0.3,0c0.9,0,1.9-0.4,2.9-1.2c2.4-1.8,4.8-2.6,7.4-2.6c2.8,0,5.3,1.2,7.2,3.5
        c2,2.3,2.9,5.2,2.9,8.5s-1,6.2-2.9,8.5c-1.9,2.3-4.4,3.5-7.2,3.5c-3.2,0-6.1-1.2-8.4-3.5s-3.5-5.2-3.5-8.5c0-1.7,0.3-3.3,1-4.8
        l0.1-0.2l-0.4-0.1l-0.4-0.2l-0.2-0.1l-0.1,0.2c-0.7,1.5-1,3.2-1,5.1c0,3.6,1.3,6.7,3.8,9.2c2.4,2.5,5.5,3.8,9.1,3.8
        s6.7-1.3,9.2-3.8c2.5-2.5,3.8-5.6,3.8-9.2c0-3.6-1.3-6.6-3.9-9.1c-2.5-2.5-5.6-3.8-9.2-3.8c-2.8,0-5.3,0.9-7.7,2.6
        c-0.5,0.4-1,0.6-1.4,0.6c-0.9,0-1.3-0.4-1.3-1.3c0-0.7,0.3-1.2,0.9-1.5c0.7-0.4,1.4-0.6,2.2-0.6c0.3,0,0.6,0,1,0.1
        c0.7,0.4,1.3,0.6,2.1,0.6c1.1,0,2.3-0.5,3.2-1.4s1.4-2,1.4-3.3v-0.8c0.7-0.1,1.3-0.4,1.9-0.7c1-0.6,1.5-1.3,1.7-2l0.1-0.2
        l-0.2-0.1l-2-1L56.5,27.6L56.5,27.6z M51,36.2c-0.4,0-0.8-0.4-1.2-1.1c-0.4-0.8-0.6-1.6-0.6-2.6s0.2-1.8,0.6-2.6
        c0.3-0.6,0.8-1,1.2-1c0.5,0,0.9,0.3,1.2,1c0.4,0.8,0.6,1.6,0.6,2.6s-0.2,1.8-0.6,2.6C51.8,35.9,51.4,36.2,51,36.2L51,36.2z"/>
    <path fill="#34BC02" d="M71.5,28c-3.2,0-5.8,1.1-8,3.3c-2.2,2.1-3.4,4.8-3.4,8c0,3.1,1.1,5.7,3.4,8c2.2,2.2,4.9,3.4,8,3.4
        c3.6,0,6.4-1.3,8.6-3.8v2.9V50h0.2h2.2h0.2v-0.2V39.2c0-3.2-1.1-5.8-3.3-8C77.3,29.1,74.6,28,71.5,28L71.5,28z M71.4,49.6
        c-2.4,0-4.4-1-6-3c-1.7-2.1-2.5-4.6-2.5-7.3s0.9-5.3,2.5-7.3c1.6-2,3.6-3,6-3c2.5,0,4.5,1,6.1,3c1.7,2.1,2.5,4.6,2.5,7.3
        c0,2.9-0.9,5.4-2.5,7.3C75.8,48.6,73.8,49.6,71.4,49.6L71.4,49.6z"/>
    <path fill="#34BC02" d="M88.8,28.1c-0.9,0-1.6,0.2-2.2,0.7v-0.1h-0.2h-2.2H84v0.2v20.7v0.2h0.2h2.2h0.2v-0.2v-19
        c0.1-0.5,0.3-0.8,0.5-1.1v0.1c0,0.7,0.3,1.6,1.7,1.6s1.7-0.8,1.7-1.6C90.4,28.7,89.8,28.1,88.8,28.1L88.8,28.1z"/>
    <path fill="#34BC02" d="M10,26.7c-0.2,0-0.3,0-0.5,0.1c-0.8,0.4-1.1,1.1-0.8,1.9c0.1,0.3,0.4,0.6,0.9,0.7c0.2,0.1,0.4,0.1,0.5,0.1
        s0.4,0,0.5-0.1c0.3-0.1,0.6-0.4,0.8-0.9c0.1-0.5,0.1-0.7,0-1.1c-0.2-0.3-0.4-0.5-0.8-0.7l0,0l0,0C10.3,26.7,10.2,26.7,10,26.7
        L10,26.7z"/>
    <path fill="#34BC02" d="M12.9,25.5c-0.2,0-0.3,0-0.5,0.1c-0.8,0.4-1.1,1.1-0.8,1.9c0.3,0.6,0.7,0.9,1.2,0.9c0.2,0,0.5,0,0.7-0.2
        c0.3-0.1,0.6-0.4,0.7-0.9s0.1-0.7,0-1.1c-0.1-0.3-0.4-0.6-0.9-0.8C13.2,25.5,13.1,25.5,12.9,25.5L12.9,25.5z"/>
</g>
</svg>
