<svg version="1.1" xmlns="http://www.w3.org/2000/svg" xmlns:xlink="http://www.w3.org/1999/xlink" x="0px" y="0px" viewBox="0 0 227.4 116.6" style="enable-background:new 0 0 227.4 116.6;" xml:space="preserve">
<g id="heliga-handgranaten">
	<circle fill="#FFFFFF" cx="145.9" cy="73.6" r="42.2"/>
    <g>
		<path fill="#000000" d="M138,33.6c22-4.4,43.5,9.9,47.9,32c4.4,22.1-9.9,43.5-32,47.9c-22.1,4.4-43.5-9.9-47.9-32S115.9,38,138,33.6 M137.5,31.3    C114.2,36,99.1,58.7,103.7,82c4.6,23.3,27.4,38.4,50.6,33.8c23.3-4.6,38.4-27.4,33.8-50.6S160.8,26.7,137.5,31.3L137.5,31.3z"/>
	</g>
    <path fill="#000000" d="M111.8,54.3c1.8,9,3.7,13.5,7.1,18.8c4.1,6.3,13.6,12.4,27,16.7c3.3,1.1,22.4,7,33.4-3.3c3.6-3.3,7.7-8.1,9-7.5   c1.2,0.5-0.4,6.1-1.2,9.1c-0.2,0.6-2.8,7.8-9,13.3c-12.4,10.8-34,4.3-40.4,2.4c-3.8-1.1-16.6-5.1-25.3-15.9   c-2.3-2.8-5.9-7.4-6.4-13.9c-0.2-2.6-3.2-7.9-2.5-11.9c0.9-5.1,3.4-10.1,5.7-11.1C110.3,50.5,111.6,53.5,111.8,54.3z"/>
    <path fill="#000000" d="M112.7,97.8c-0.2-4-0.8-10.4,2.1-17.3c5.9-14.1,10.7-18,23.5-30.9c15-15,21.8-15.1,21.8-15.1l13.7,8.3   c0,0-8.8,5.7-13.7,10.3c-8.3,7.9-15.7,15-21.8,26.6c-2.7,5.1-5.4,10.2-7.2,17.4c-1.9,7.3-1.6,11.4-3.9,12.4   C125.2,110.4,121.2,108.8,112.7,97.8z"/>
    <g fill="#000000">
		
			<ellipse transform="matrix(0.5056 -0.8627 0.8627 0.5056 37.5807 159.9286)" fill="#FFFFFF" cx="158.3" cy="47.2" rx="13.5" ry="21.4"/>
        <path d="M169.9,64.6c-1,0.2-2.1,0.3-3.2,0.4c-5.1,0.2-10.9-1-16.1-4.1s-9.4-7.7-11.7-12.2c-2.5-4.8-3.1-8.8-0.9-12.5l0.7-1.6    c5.1-8.7,17.6-6.5,27.5-0.6c5.2,3.1,9.4,7.3,11.8,11.8c2.5,4.8,2.7,9.5,0.5,13.2C176.7,61.9,173.7,63.8,169.9,64.6z M147.6,31.7    c-2.6,0.5-6,2.9-7.4,5.2l-0.6,1.3c-1.5,2.6,0.5,5.1,2.4,8.8c2,3.9,5.7,7.6,10.4,10.3c4.6,2.7,10.1,4,14.5,3.9    c4.1-0.1,6.5-2.7,8-5.3c1.5-2.6,1.6-4.8-0.3-8.4c-2-3.9-5.7-7.6-10.4-10.3C158.9,34,152.5,30.7,147.6,31.7z"/>
	</g>
    <path fill="#000000" d="M160.9,50.3c2.5,1.3,6,1.2,9.7,1.8c5.3,0.9,9.5-0.3,12.3-1.1c3.5-1,13.1-3.8,15.2-10.7c0.4-1.3,0.9-2.9,0.3-4.7   c-1-2.9-4.4-4.3-4-6.2c0.1-0.4,0.4-0.8,0.5-1c0.8-1.1,2-1.5,2.4-1.6c2-0.8,2.9-4.4,3.4-6.1c1.6-6.5-2-17.8-9.3-20.1   c-2.9-0.9-6.7-0.5-7.7-0.4c-2.3,0.2-3.4,0.4-4.7,1.1c-1,0.6-1.5,1.3-2.5,1.3c-1.2,0-1.9-1.1-2.5-1.6c-2.4-2.2-9.1,0-12.6,2.1   c-1.9,1.1-10.2,7.1-11.8,14.7c-0.4,1.9-0.5,5.4,2.8,7.4c0.9,0.5,3.5,0.9,4.1,1.6c0.5,0.6-0.6,1.9-1.6,4.4c-1.8,4.4-2.8,5.3-3.1,7.6   c-0.3,2.2,1,4.6,1.4,5.4C154.5,47.3,157.1,48.4,160.9,50.3z"/>
    <path fill="#FFFFFF" d="M158.9,25.9c0,0-5.4-1.2-7.1-3.7c-1.1-1.7-0.9-1.8-0.5-3.9c0.5-2.4,3.4-9.8,13.2-15c0.5-0.2,1.6-0.3,2,0   c2.7,1.9,4.6,7.8,4.6,7.8s3.3-5.4,7.6-8.1c1.9-1.1,3.3-0.4,4.8,0.4c6.4,3.7,9.7,10.1,11.8,17.4c0.4,1.5-0.3,2.6-1.3,4.1   c-2.6,3.9-9.2,5-9.2,5s4.5,3,7.1,6.6c0.2,0.3,1.4,1,0.6,2.2c-3,4.6-10.4,11.4-14.7,11.8c-4.2,0.4-7.3-8.8-7.3-8.8s-3.2,6.5-7.2,6.4   c-2.7-0.1-8.7-5-9.4-8.7c-0.4-2.1,1.1-3,3.5-9.4C158.4,26.9,158.9,25.9,158.9,25.9z"/>
    <g>
		<g>
			<path fill="#06a0da" d="M170.4,34.2c-0.8,0-1.7-0.1-2.4-0.4c-0.3-0.1-1.1-0.4-2-1.1c-0.4-0.3-0.7-0.6-1.1-1     c-0.4-0.5-1.5-1.7-2.2-3.3l-0.1-0.2c-0.5-1.1-2-4.4-0.1-7.5c1.9-3.1,4.2-4.7,6.9-4.7c1.4,0,2.8,0.4,4,0.9c2,0.8,5.4,3.2,6.6,6.7     c0.7,2.2,0.4,4.3-0.9,6.4c-0.8,1.3-1.3,2.1-2.1,2.6c-0.9,0.6-2.2,0.9-4.8,1.4c-0.5,0.1-0.9,0.2-1.5,0.2L170.4,34.2z"/>
            <path fill="#000000" d="M169.4,16.4c1.5,0,2.8,0.5,3.8,0.9c3.2,1.3,9.2,6.4,5.4,12.4c-0.8,1.3-1.3,2-2,2.5c-0.8,0.6-2.1,0.8-4.6,1.4     c-0.4,0.1-0.8,0.2-1.4,0.2c-0.1,0-0.1,0-0.2,0c-1.1,0-1.9-0.3-2.3-0.4c-0.2-0.1-1-0.4-1.9-1.1c-0.2-0.2-0.6-0.5-1.1-1     c-0.3-0.3-1.4-1.6-2.1-3.2c-0.4-0.9-2.1-4.2-0.2-7.3C165,17.4,167.3,16.4,169.4,16.4 M169.4,15.5c-2.9,0-5.3,1.7-7.3,4.9     c-2,3.3-0.4,6.8,0.1,8l0.1,0.2c0.7,1.6,1.8,2.9,2.3,3.4c0.4,0.4,0.8,0.8,1.2,1.1c0.9,0.7,1.8,1.1,2.1,1.2     c0.8,0.3,1.7,0.4,2.6,0.4l0.2,0c0.6,0,1.1-0.1,1.6-0.2c2.7-0.6,4-0.8,5-1.5c0.8-0.6,1.4-1.4,2.2-2.8c1.4-2.2,1.7-4.5,1-6.8     c-1.2-3.6-4.7-6.1-6.8-7C172.3,16,170.9,15.5,169.4,15.5L169.4,15.5z"/>
		</g>
        <path fill="#036081" d="M175.3,32.9c1.2-0.4,2-1.1,3-2.4c1.8-2.3,1.5-5.2,1.5-5.2s-0.5,0.6-0.8,1.2c-0.4,0.7-2,2.6-3.1,3.3    c-0.7,0.4-1.8,0.2-4.1-0.3c-3.4-0.7-5.5-1.2-7.9-2.6c-1.1-0.6-1.7-1-1.7-1s0.4,1.7,0.8,2.5c1.1,1.8,1.8,3.3,3.5,4.3    c1.7,1,2.8,1.1,3.7,1.2C172.5,34,174.3,33.3,175.3,32.9z"/>
	</g>
    <path fill="#000000" d="M167.2,63.6c0,0,2.4,3.5,4.7,6.6c6.3,8.6,0.2,19.4,3.9,21.3c3,1.5,10.5-3.8,11.1-9.6c0.1-1.2,1-3.3-0.2-7.3   c-2.5-8.4-2.4-7.7-4.7-12.5c-0.6-1.1-4.8-6.4-4.8-6.4s-0.3,1-0.7,2C175,61.7,167.2,63.6,167.2,63.6z"/>
    <path fill="#000000" d="M137.5,39.9c0,0-3.4-0.2-7.5,0.1c-7.1,0.5-12.4,2.2-12.4,2.2s2.6-2.4,5.3-4c1.8-1.1,6.6-3.8,13.8-5.4   c1-0.2,5.6-1.3,5.9-0.5c0.2,0.4-1.1,0.9-2.4,2.6C138.4,37.3,137.5,39.9,137.5,39.9z"/>
    <g>
		<g>
			<path fill="#06a0da" d="M139.7,67c-0.5,0-1-0.1-1.5-0.3c-0.2-0.1-0.7-0.3-1.3-0.7c-0.2-0.2-0.5-0.4-0.7-0.7     c-0.3-0.3-0.9-1.1-1.4-2.1l0-0.1c-0.3-0.7-1.2-2.8-0.1-4.9c1.2-2,2.6-3,4.3-3c0.9,0,1.7,0.3,2.5,0.6c1.3,0.5,3.4,2.1,4.1,4.3     c0.5,1.4,0.3,2.8-0.6,4.2c-0.5,0.8-0.8,1.3-1.3,1.7c-0.5,0.4-1.4,0.6-3,0.9c-0.3,0.1-0.6,0.1-1,0.1L139.7,67z"/>
            <path fill="#000000" d="M139,55.5c0.9,0,1.8,0.3,2.4,0.6c2,0.8,5.8,4.1,3.4,8c-0.5,0.8-0.8,1.3-1.2,1.6c-0.5,0.4-1.3,0.5-2.9,0.9     c-0.3,0.1-0.5,0.1-0.9,0.1c0,0-0.1,0-0.1,0c-0.7,0-1.2-0.2-1.4-0.2c-0.1,0-0.6-0.2-1.2-0.7c-0.1-0.1-0.4-0.3-0.7-0.6     c-0.2-0.2-0.9-1-1.3-2c-0.2-0.5-1.3-2.7-0.1-4.7C136.3,56.1,137.7,55.5,139,55.5 M139,54.9c-1.8,0-3.4,1.1-4.6,3.2     c-1.2,2.1-0.3,4.4,0,5.1l0,0.1c0.4,1,1.1,1.9,1.4,2.2c0.2,0.3,0.5,0.5,0.7,0.7c0.6,0.5,1.1,0.7,1.4,0.8c0.5,0.2,1.1,0.3,1.6,0.3     l0.1,0c0.4,0,0.7-0.1,1-0.1c1.7-0.4,2.5-0.5,3.1-1c0.5-0.4,0.9-0.9,1.4-1.8c0.9-1.4,1.1-2.9,0.6-4.4c-0.8-2.3-3-3.9-4.3-4.4     C140.8,55.2,140,54.9,139,54.9L139,54.9z"/>
		</g>
        <path fill="#036081" d="M142.7,66.1c0.7-0.3,1.2-0.7,1.9-1.6c1.1-1.5,1-3.3,1-3.3s-0.3,0.4-0.5,0.7c-0.2,0.4-1.3,1.6-2,2.1    c-0.4,0.3-1.1,0.1-2.6-0.2c-2.1-0.5-3.4-0.8-5-1.7c-0.7-0.4-1.1-0.6-1.1-0.6s0.3,1.1,0.5,1.6c0.7,1.2,1.1,2.1,2.2,2.8    c1.1,0.7,1.7,0.7,2.4,0.8C141,66.9,142.1,66.4,142.7,66.1z"/>
	</g>
    
    
    <g>
		<g>
			<path fill="#06a0da" d="M121.8,103.9c-0.4,0-1-0.1-2-0.2c-0.2,0-0.4-0.1-0.7-0.1c-0.5-0.1-0.9-0.3-1.2-0.5c-0.2-0.1-0.5-0.3-0.9-0.6     c-0.1-0.1-0.3-0.2-0.4-0.5c-0.2-0.2-0.6-0.8-0.8-1.4c-0.2-0.5-0.6-1.9,0.6-2.7c0.8-0.6,1.7-0.8,2.5-0.8c1.3,0,2.4,0.6,3,1     c1,0.6,2.6,2,2.6,3.4c0,0.7-0.4,1.3-1.1,1.8c-0.5,0.3-0.8,0.5-1.3,0.6C122.1,103.9,122,103.9,121.8,103.9z"/>
            <path fill="#000000" d="M119,97.3c1.2,0,2.2,0.6,2.9,0.9c1.4,0.8,3.9,3.3,1.5,4.9c-0.5,0.3-0.8,0.5-1.2,0.6c-0.1,0-0.3,0-0.4,0     c-0.4,0-1-0.1-1.9-0.2c-0.2,0-0.4-0.1-0.7-0.1c-0.6-0.1-1-0.4-1.1-0.4c-0.1,0-0.4-0.3-0.8-0.6c-0.1-0.1-0.2-0.2-0.4-0.5     c-0.1-0.1-0.5-0.7-0.7-1.3c-0.1-0.3-0.6-1.7,0.6-2.5C117.5,97.5,118.3,97.3,119,97.3 M119,96.9c-0.9,0-1.8,0.3-2.7,0.9     c-0.9,0.6-1.1,1.6-0.7,2.8l0,0.1c0.2,0.6,0.6,1.2,0.8,1.5c0.2,0.2,0.3,0.4,0.5,0.5c0.4,0.4,0.8,0.6,0.9,0.7     c0.3,0.1,0.7,0.3,1.2,0.5c0.3,0.1,0.5,0.1,0.8,0.1c0.9,0.1,1.5,0.2,2,0.2c0.2,0,0.4,0,0.5,0c0.5-0.1,0.8-0.3,1.3-0.6     c1-0.6,1.2-1.4,1.2-1.9c0-1.5-1.6-3-2.7-3.6C121.5,97.5,120.4,96.9,119,96.9L119,96.9z"/>
		</g>
        <path fill="#036081" d="M121.5,103.7c0.6,0,1.1-0.1,1.7-0.4c1.1-0.5,1.2-1.5,1.2-1.5s-0.3,0.1-0.5,0.3c-0.2,0.2-1.2,0.6-1.8,0.7    c-0.4,0.1-0.9-0.2-2-0.6c-1.6-0.7-2.6-1.1-3.6-1.9c-0.5-0.3-0.7-0.5-0.7-0.5s0.1,0.6,0.2,0.9c0.3,0.7,0.6,1.3,1.3,1.9    c0.7,0.6,1.3,0.7,1.7,0.9C120.1,103.7,121,103.7,121.5,103.7z"/>
	</g>
	<g>
		<path fill="#000000" d="M20.4,83.6c0,3-0.7,6.1-2,9.4c-1.6,4-3.9,6.9-6.9,8.8l-0.2-0.4c0.8-1.2,1.5-2.9,2.1-5c0.6-2.2,0.9-4.8,0.9-7.8    c0-2.2-0.3-4.6-0.9-7c-0.8-3.4-2-5.6-3.5-6.8H9.2v23H1.9V62.3L8,60h1.3v12.7h0.9c1-0.7,1.8-1.2,2.3-1.6c1.6-1.1,2.5-1.6,2.8-1.6    c0.3,0.4,0.6,0.7,0.8,1c1.3,1.8,2.4,3.9,3.2,6.1c0.5,1.4,0.7,2.2,0.8,2.5C20.3,80.3,20.4,81.8,20.4,83.6z"/>
        <path fill="#000000" d="M39.4,95.1c0,0.2-0.7,0.9-2.2,1.8c-1.4,1-2.3,1.5-2.5,1.5c-0.5,0-1.1-0.5-1.7-1.5c-0.2-0.4-0.5-0.9-0.9-1.7    c-0.8,0.2-1.7,0.7-2.7,1.3c-1.8,1.1-2.8,1.7-3,1.7c-0.3,0-0.8-0.4-1.4-1.3c-1.6-2.1-2.5-4.6-2.5-7.7c0-1.4,0.1-2.6,0.4-3.5    c0.3-0.9,1-2.2,2.3-3.9c1.1-1.4,2.6-2.5,4.4-3.3c1.5-0.6,2.2-1.2,2.2-1.6c0-0.7-0.5-1.5-1.6-2.2c-1.1-0.8-1.8-1.1-2.2-1.1    c-0.1,0-0.5,0.1-1.2,0.3c-0.7,0.2-1.2,0.3-1.6,0.3c-0.5,0-1-0.1-1.5-0.4c-0.5-0.2-0.7-0.6-0.7-1.1c0-0.7,0.3-1,0.9-1    c0.2,0,0.6,0.1,1.3,0.3c0.2,0.1,0.4,0.1,0.6,0.1c0.6,0,1.5-0.3,2.8-0.9c1.3-0.6,2.7-1.3,4-2c0.6,0,1.6,0.7,3.1,2    c1.7,1.5,2.6,2.8,2.6,4V93c0,0.2,0.1,0.6,0.4,1.2C39,94.4,39.1,94.6,39.4,95.1z M31.7,92.8l-0.2-12.6c-1,0.4-1.8,1.2-2.5,2.5    c-0.6,1.3-1,2.4-1,3.3c0,1.5,0.3,3,1,4.6c0.7,1.6,1.3,2.4,1.9,2.4C31.1,93,31.3,92.9,31.7,92.8z"/>
        <path fill="#000000" d="M60.7,94.4c0,0.4-0.8,1.2-2.3,2.4c-1.5,1.2-2.5,1.8-2.8,1.8c-0.3,0-0.8-0.6-1.6-1.7c-0.9-1.2-1.4-2.2-1.4-3.1V77.2    c0-0.5-0.2-1.1-0.5-1.9c-0.4-0.8-0.8-1.1-1.3-1.1c-0.3,0-0.5,0.2-0.8,0.5c-0.2,0.4-0.4,0.6-0.4,0.8v22.3h-7.3V75.3    c0-0.5-0.2-1-0.7-1.6c-0.4-0.6-0.7-0.9-0.7-0.9c0-0.2,0.9-0.8,2.7-1.8c1.8-1,2.9-1.5,3.1-1.5c0.5,0,1.1,0.6,1.8,1.7    c0.6,1.1,1.1,1.7,1.3,1.7c0.4,0,1.6-0.6,3.7-1.7c2-1.1,3.1-1.7,3.1-1.7c0.4,0,0.9,0.5,1.6,1.4c0.8,1.1,1.2,2.3,1.2,3.5v16.7    c0,0.4,0.1,0.9,0.4,1.5C60.1,93.2,60.4,93.8,60.7,94.4z"/>
        <path fill="#000000" d="M81.8,94.6c-0.3,0.4-1.3,1.2-2.9,2.2c-1,0.6-1.6,0.9-2,0.9c-0.7,0-1.3-0.6-1.9-1.7c-0.6-1.1-1.1-1.7-1.4-1.7    c-0.2,0-1,0.6-2.2,1.7c-1.3,1.1-2.1,1.7-2.4,1.7c-0.6,0-1.5-0.6-2.7-1.9c-2.8-3-4.1-6.7-4.1-11.1c0-0.9,0.3-2.1,0.8-3.8    c0.5-1.6,1.1-3.1,1.8-4.2c0.3-0.5,1.4-1.9,3.3-4.1c2-2.4,3.2-3.6,3.6-3.6c0.3,0,0.6,0.1,0.9,0.4c0.3,0.2,0.5,0.4,0.7,0.5    c0.1-0.1,0.2-0.2,0.3-0.3c0.2-0.2,0.2-0.3,0.2-0.6v-5.5c0.6-0.6,1.5-1,2.7-1.3c1.2-0.2,2.2-0.5,2.9-0.8h1V92    c0,0.4,0.1,0.8,0.4,1.3C81,93.7,81.3,94.1,81.8,94.6z M73.4,78.5c0-0.3-0.4-0.9-1.2-1.8c-0.8-0.9-1.7-1.9-2.8-3    c-0.6,0.7-1.1,2-1.5,3.8c-0.1,0.6-0.2,1.5-0.4,2.6c0,1.9,0.4,3.7,1.1,5.6c1,2.6,2.6,4.6,4.6,6c0-2.3,0-5,0.1-8    C73.4,80.6,73.4,78.9,73.4,78.5z"/>
        <path fill="#000000" d="M103.4,98.9c0,1.9-1.1,3.6-3.4,5.4c-2.3,1.7-4.5,2.6-6.7,2.6c-1.2,0-2.5-0.3-3.8-0.8c-1.3-0.5-1.9-1.1-1.9-1.8    c0.4-0.6,0.7-1,0.9-1.3c0.8-0.9,1.6-1.3,2.5-1.3c0.6,0.8,1.2,1.6,1.8,2.3c0.7,0.7,1.5,1,2.5,1c0.8,0,1.6-0.3,2.4-1    c0.8-0.7,1.2-1.5,1.2-2.4c0-0.5-0.6-1.6-1.9-3.5c-1.3-1.9-2.1-2.8-2.4-2.8c-0.4,0-1.1,0.4-2.2,1.3c-1.1,0.8-1.9,1.3-2.4,1.3    c-0.7,0-2-1.3-3.8-3.8c-2.1-3-3.2-6-3.2-8.9c0-2.6,1.3-5.5,4-8.8c0.9-1.2,2.5-2.7,4.8-4.5c2.2-1.8,3.5-2.7,3.8-2.7    c1.4,1.2,2.4,2.1,3.1,2.8c2.1,2,3.1,3.3,3.1,3.9v18.5c0,0.4,0.3,1,0.8,1.8C103.2,96.9,103.4,97.9,103.4,98.9z M94.3,92.4V76.7    c-0.5-0.6-0.8-1.1-1.1-1.4c-0.8-1-1.4-1.5-1.7-1.5c-0.7,0-1.4,1.3-2.2,3.8c-0.4,1.2-0.5,2.2-0.5,2.8c0,2.3,0.5,4.5,1.5,6.7    C91.8,90,93.1,91.8,94.3,92.4z"/>
        <path fill="#000000" d="M119.7,73.5c0,0.3-0.3,0.9-1,1.6c-1.3,1.5-2.1,2.3-2.4,2.3c-0.2,0-0.5-0.2-0.9-0.7c-0.6-0.7-1.1-1.2-1.7-1.5V98h-7.3V75.2    c0-0.3-0.2-0.8-0.6-1.3c-0.4-0.6-0.7-1-1.1-1.2c0.2-0.4,0.9-1.1,2.2-2c1.3-1,2.2-1.5,2.7-1.5c0.4,0,0.9,0.3,1.6,1    c0.6,0.7,1.3,1.3,1.9,2c0.3,0,0.9-0.5,1.9-1.5c1-1,1.5-1.5,1.6-1.5c0.7,0.5,1.2,0.9,1.5,1.2C119.2,71.4,119.7,72.5,119.7,73.5z"/>
        <path fill="#000000" d="M138.3,95.1c0,0.2-0.7,0.9-2.2,1.8c-1.4,1-2.3,1.5-2.5,1.5c-0.5,0-1.1-0.5-1.7-1.5c-0.2-0.4-0.5-0.9-0.9-1.7    c-0.8,0.2-1.7,0.7-2.7,1.3c-1.8,1.1-2.8,1.7-3,1.7c-0.3,0-0.8-0.4-1.4-1.3c-1.6-2.1-2.5-4.6-2.5-7.7c0-1.4,0.1-2.6,0.4-3.5    c0.3-0.9,1-2.2,2.3-3.9c1.1-1.4,2.6-2.5,4.4-3.3c1.5-0.6,2.2-1.2,2.2-1.6c0-0.7-0.5-1.5-1.6-2.2c-1.1-0.8-1.8-1.1-2.2-1.1    c-0.1,0-0.5,0.1-1.2,0.3c-0.7,0.2-1.2,0.3-1.6,0.3c-0.5,0-1-0.1-1.5-0.4c-0.5-0.2-0.7-0.6-0.7-1.1c0-0.7,0.3-1,0.9-1    c0.2,0,0.6,0.1,1.3,0.3c0.2,0.1,0.4,0.1,0.6,0.1c0.6,0,1.5-0.3,2.8-0.9c1.3-0.6,2.7-1.3,4-2c0.6,0,1.6,0.7,3.1,2    c1.7,1.5,2.6,2.8,2.6,4V93c0,0.2,0.1,0.6,0.4,1.2C137.9,94.4,138,94.6,138.3,95.1z M130.6,92.8l-0.2-12.6c-1,0.4-1.8,1.2-2.5,2.5    c-0.6,1.3-1,2.4-1,3.3c0,1.5,0.3,3,1,4.6c0.7,1.6,1.3,2.4,1.9,2.4C130,93,130.2,92.9,130.6,92.8z"/>
        <path fill="#000000" d="M159.6,94.4c0,0.4-0.8,1.2-2.3,2.4c-1.5,1.2-2.5,1.8-2.8,1.8c-0.3,0-0.8-0.6-1.6-1.7c-0.9-1.2-1.4-2.2-1.4-3.1V77.2    c0-0.5-0.2-1.1-0.5-1.9c-0.4-0.8-0.8-1.1-1.3-1.1c-0.3,0-0.5,0.2-0.8,0.5c-0.2,0.4-0.4,0.6-0.4,0.8v22.3h-7.3V75.3    c0-0.5-0.2-1-0.7-1.6c-0.4-0.6-0.7-0.9-0.7-0.9c0-0.2,0.9-0.8,2.7-1.8c1.8-1,2.9-1.5,3.1-1.5c0.5,0,1.1,0.6,1.8,1.7    c0.6,1.1,1.1,1.7,1.3,1.7c0.4,0,1.6-0.6,3.7-1.7c2-1.1,3.1-1.7,3.1-1.7c0.4,0,0.9,0.5,1.6,1.4c0.8,1.1,1.2,2.3,1.2,3.5v16.7    c0,0.4,0.1,0.9,0.4,1.5C159,93.2,159.3,93.8,159.6,94.4z"/>
        <path fill="#000000" d="M178.2,95.1c0,0.2-0.7,0.9-2.2,1.8c-1.4,1-2.3,1.5-2.5,1.5c-0.5,0-1.1-0.5-1.7-1.5c-0.2-0.4-0.5-0.9-0.9-1.7    c-0.8,0.2-1.7,0.7-2.7,1.3c-1.8,1.1-2.8,1.7-3,1.7c-0.3,0-0.8-0.4-1.4-1.3c-1.6-2.1-2.5-4.6-2.5-7.7c0-1.4,0.1-2.6,0.4-3.5    c0.3-0.9,1-2.2,2.3-3.9c1.1-1.4,2.6-2.5,4.4-3.3c1.5-0.6,2.2-1.2,2.2-1.6c0-0.7-0.5-1.5-1.6-2.2c-1.1-0.8-1.8-1.1-2.2-1.1    c-0.1,0-0.5,0.1-1.2,0.3c-0.7,0.2-1.2,0.3-1.6,0.3c-0.5,0-1-0.1-1.5-0.4c-0.5-0.2-0.7-0.6-0.7-1.1c0-0.7,0.3-1,0.9-1    c0.2,0,0.6,0.1,1.3,0.3c0.2,0.1,0.4,0.1,0.6,0.1c0.6,0,1.5-0.3,2.8-0.9c1.3-0.6,2.7-1.3,4-2c0.6,0,1.6,0.7,3.1,2    c1.7,1.5,2.6,2.8,2.6,4V93c0,0.2,0.1,0.6,0.4,1.2C177.8,94.4,177.9,94.6,178.2,95.1z M170.4,92.8l-0.2-12.6    c-1,0.4-1.8,1.2-2.5,2.5c-0.6,1.3-1,2.4-1,3.3c0,1.5,0.3,3,1,4.6c0.7,1.6,1.3,2.4,1.9,2.4C169.9,93,170.1,92.9,170.4,92.8z"/>
        <path fill="#000000" d="M189.2,94.4c0,0.3-0.8,0.9-2.3,1.9s-2.5,1.5-2.9,1.5c-0.6,0-1.2-0.5-1.9-1.4c-0.7-1-1-1.8-1-2.5V71.4h-3V69    c2.2,0,4.3-0.9,6.2-2.6c1.6-1.5,2.5-2.9,2.9-4.3h0.7v5.5c0,0.6,0.4,1.1,1.3,1.4v2.4h-1.1v19.9c0,0.5,0.2,1.2,0.6,1.9    C189,94,189.2,94.4,189.2,94.4z"/>
        <path fill="#000000" d="M206.1,77.3c0,1.1-1.4,2.8-4.2,5.2c-2.8,2.4-4.2,3.7-4.2,4.1c0,1,2.3,3.2,6.8,6.7c-0.2,0.3-1,1.1-2.6,2.5    c-1.5,1.3-2.4,2-2.7,2c-0.2,0-0.8-0.3-1.6-0.9c-0.8-0.6-1.7-1.4-2.7-2.3c-1.6-1.6-2.8-3.4-3.6-5.6c-0.7-1.8-1-3.4-1-4.9    c0-1,0.2-2.2,0.7-3.6c0.5-1.4,1.2-2.8,2-4.1c0.5-0.7,1.6-2,3.4-3.9c2-2.1,3.3-3.2,3.8-3.2c0.1,0,0.5,0.5,1.3,1.5    c0.6,0.8,1.2,1.7,1.8,2.5c0.1,0.1,0.6,0.8,1.3,1.8C205.6,76.3,206.1,77.1,206.1,77.3z M200.3,80.3c0-0.2-0.3-0.8-1-1.9    c-0.9-1.4-1.7-2.6-2.4-3.5h-0.5c-0.4,0.9-0.6,1.8-0.9,2.7c-0.2,0.9-0.4,1.5-0.4,1.9c0,1.1,0.1,2.1,0.4,3c0.3,0.9,0.6,1.3,1.1,1.3    c0.4,0,1.1-0.5,2.2-1.6C199.8,81.3,200.3,80.6,200.3,80.3z"/>
        <path fill="#000000" d="M227.4,94.4c0,0.4-0.8,1.2-2.3,2.4c-1.5,1.2-2.5,1.8-2.8,1.8c-0.3,0-0.8-0.6-1.6-1.7c-0.9-1.2-1.4-2.2-1.4-3.1V77.2    c0-0.5-0.2-1.1-0.5-1.9c-0.4-0.8-0.8-1.1-1.3-1.1c-0.3,0-0.5,0.2-0.8,0.5c-0.2,0.4-0.4,0.6-0.4,0.8v22.3h-7.3V75.3    c0-0.5-0.2-1-0.7-1.6c-0.4-0.6-0.7-0.9-0.7-0.9c0-0.2,0.9-0.8,2.7-1.8c1.8-1,2.9-1.5,3.1-1.5c0.5,0,1.1,0.6,1.8,1.7    c0.6,1.1,1.1,1.7,1.3,1.7c0.4,0,1.6-0.6,3.7-1.7c2-1.1,3.1-1.7,3.1-1.7c0.4,0,0.9,0.5,1.6,1.4c0.8,1.1,1.2,2.3,1.2,3.5v16.7    c0,0.4,0.1,0.9,0.4,1.5C226.9,93.2,227.1,93.8,227.4,94.4z"/>
	</g>
        <g>
		<path fill="#000000" d="M26,35.7c0,2.4-0.6,4.6-1.8,6.6c-1,1.7-2.5,3.3-4.4,4.7c-1.4,1.1-3.2,2.2-5.3,3.3H14c1-1.5,2-3,3-4.4    c0.8-1.4,1.2-3.5,1.2-6.3c0-2.4-0.5-4.6-1.4-6.6c-0.5-1-1.3-2-2.4-3c-1.2-1.1-2.2-1.6-3.1-1.6c-0.7,0-1,0.3-1,1v17.6H1.9V18    c0-0.3-0.1-0.5-0.3-0.6S1.2,17,1,16.5h21.2V18H10.5v8.4c0.1,0.1,0.2,0.2,0.3,0.3c0.1,0.1,0.2,0.1,0.3,0.1c0.5,0,1.5-0.4,2.9-1.3    c1.6-1,3.2-1.9,4.8-2.9c0.3,0,1.1,0.5,2.1,1.6c1.3,1.3,2.5,2.9,3.4,4.5c0.6,1.1,1.1,2.3,1.3,3.4C25.9,33.5,26,34.6,26,35.7z"/>
            <path fill="#000000" d="M39.7,30.7c0,0.9-1.1,2.3-3.3,4.2c-2.2,1.9-3.3,3-3.3,3.3c0,0.8,1.8,2.6,5.4,5.3c-0.1,0.3-0.8,0.9-2.1,2    c-1.2,1.1-1.9,1.6-2.1,1.6c-0.2,0-0.6-0.2-1.3-0.7c-0.7-0.5-1.4-1.1-2.1-1.8c-1.3-1.3-2.2-2.8-2.9-4.5c-0.5-1.4-0.8-2.7-0.8-3.9    c0-0.8,0.2-1.8,0.6-2.9c0.4-1.1,0.9-2.2,1.6-3.3c0.4-0.6,1.3-1.6,2.7-3.1c1.6-1.7,2.6-2.5,3-2.5c0.1,0,0.4,0.4,1,1.2    c0.5,0.7,1,1.3,1.5,2c0.1,0.1,0.5,0.6,1,1.5C39.4,29.9,39.7,30.5,39.7,30.7z M35.1,33.1c0-0.2-0.3-0.7-0.8-1.5    c-0.7-1.1-1.4-2.1-1.9-2.8H32c-0.3,0.7-0.5,1.4-0.7,2.1c-0.2,0.7-0.3,1.2-0.3,1.5c0,0.9,0.1,1.7,0.3,2.4c0.2,0.7,0.5,1.1,0.9,1.1    c0.3,0,0.9-0.4,1.7-1.3C34.7,33.8,35.1,33.3,35.1,33.1z"/>
            <path fill="#000000" d="M47,47.1h-5.6V19.9c0.3-0.2,1.2-0.6,2.7-1.3c1.5-0.7,2.5-1,3-1.2V47.1z"/>
            <path fill="#000000" d="M55.5,20.4c-0.3,0.6-0.7,1.2-1.4,1.7c-0.8,0.6-1.7,0.9-2.7,0.9c-0.5,0-1.1-0.1-1.7-0.4c-0.6-0.3-0.9-0.6-0.9-1    c0-0.2,0.4-0.7,1.1-1.3c0.8-0.7,1.3-1,1.7-1c0.3,0,0.5,0.1,0.7,0.3C52.6,20.1,53.7,20.4,55.5,20.4z M55.9,47.2H50v-18    c0-0.2-0.1-0.4-0.2-0.6c-0.2-0.2-0.4-0.6-0.8-1c0.1-0.2,0.8-0.8,2.1-1.9c1.2-1,2-1.6,2.2-1.6c0.4,0,1,0.7,1.7,2c0.7,1.4,1,2.3,1,3    V47.2z"/>
            <path fill="#000000" d="M74,48c0,1.5-0.9,2.9-2.7,4.3c-1.8,1.4-3.6,2.1-5.4,2.1c-1,0-2-0.2-3-0.6c-1-0.4-1.6-0.9-1.6-1.5c0.3-0.5,0.6-0.8,0.8-1    c0.6-0.7,1.3-1,2-1c0.4,0.7,0.9,1.3,1.5,1.8c0.5,0.5,1.2,0.8,2,0.8c0.6,0,1.3-0.3,1.9-0.8c0.6-0.5,1-1.2,1-1.9    c0-0.4-0.5-1.3-1.6-2.8c-1-1.5-1.7-2.2-1.9-2.2c-0.3,0-0.9,0.3-1.7,1c-0.8,0.7-1.5,1-1.9,1c-0.6,0-1.6-1-3-3.1    c-1.7-2.4-2.6-4.8-2.6-7.1c0-2,1.1-4.4,3.2-7c0.8-1,2-2.1,3.8-3.6c1.8-1.4,2.8-2.2,3-2.2c1.1,1,1.9,1.7,2.5,2.2    c1.7,1.6,2.5,2.6,2.5,3.1v14.8c0,0.3,0.2,0.8,0.6,1.5C73.7,46.4,74,47.1,74,48z M66.7,42.7V30.2c-0.4-0.5-0.6-0.9-0.8-1.1    c-0.6-0.8-1.1-1.2-1.3-1.2c-0.6,0-1.1,1-1.7,3c-0.3,1-0.4,1.7-0.4,2.2c0,1.8,0.4,3.6,1.2,5.4C64.7,40.8,65.7,42.2,66.7,42.7z"/>
            <path fill="#000000" d="M88.7,44.9c0,0.2-0.6,0.7-1.7,1.5c-1.1,0.8-1.8,1.2-2,1.2c-0.4,0-0.9-0.4-1.4-1.2c-0.2-0.3-0.4-0.7-0.8-1.3    c-0.6,0.2-1.3,0.5-2.1,1c-1.5,0.9-2.3,1.3-2.4,1.3c-0.2,0-0.6-0.3-1.1-1c-1.3-1.7-2-3.7-2-6.2c0-1.1,0.1-2,0.3-2.8    c0.2-0.7,0.8-1.8,1.9-3.1c0.9-1.1,2-2,3.5-2.6c1.2-0.5,1.8-0.9,1.8-1.3c0-0.6-0.4-1.2-1.3-1.8c-0.9-0.6-1.4-0.9-1.7-0.9    c-0.1,0-0.4,0.1-1,0.3c-0.5,0.2-1,0.3-1.3,0.3c-0.4,0-0.8-0.1-1.2-0.3c-0.4-0.2-0.6-0.5-0.6-0.9c0-0.5,0.3-0.8,0.8-0.8    c0.2,0,0.5,0.1,1.1,0.2c0.2,0.1,0.3,0.1,0.5,0.1c0.4,0,1.2-0.3,2.3-0.8c1.1-0.5,2.1-1,3.2-1.6c0.4,0,1.3,0.5,2.5,1.6    C87.3,27,88,28,88,29v14.3c0,0.1,0.1,0.4,0.3,0.9C88.4,44.3,88.5,44.6,88.7,44.9z M82.6,43.1L82.4,33c-0.8,0.3-1.5,1-2,2    s-0.8,2-0.8,2.6c0,1.2,0.3,2.4,0.8,3.7c0.5,1.3,1,1.9,1.5,1.9C82.1,43.2,82.3,43.1,82.6,43.1z"/>
	</g>
        <g>
		<path fill="#06a0da" d="M19.4,83c0,3-0.7,6.1-2,9.4c-1.6,4-3.9,6.9-6.9,8.8l-0.2-0.4c0.8-1.2,1.5-2.9,2.1-5c0.6-2.2,0.9-4.8,0.9-7.8    c0-2.2-0.3-4.6-0.9-7c-0.8-3.4-2-5.6-3.5-6.8H8.3v23H1V61.7l6-2.4h1.3V72h0.9c1-0.7,1.8-1.2,2.3-1.6c1.6-1.1,2.5-1.6,2.8-1.6    c0.3,0.4,0.6,0.7,0.8,1c1.3,1.8,2.4,3.9,3.2,6.1c0.5,1.4,0.7,2.2,0.8,2.5C19.3,79.7,19.4,81.2,19.4,83z"/>
            <path fill="#06a0da" d="M38.4,94.4c0,0.2-0.7,0.9-2.2,1.8c-1.4,1-2.3,1.5-2.5,1.5c-0.5,0-1.1-0.5-1.7-1.5c-0.2-0.4-0.5-0.9-0.9-1.7    c-0.8,0.2-1.7,0.7-2.7,1.3c-1.8,1.1-2.8,1.7-3,1.7c-0.3,0-0.8-0.4-1.4-1.3c-1.6-2.1-2.5-4.6-2.5-7.7c0-1.4,0.1-2.6,0.4-3.5    c0.3-0.9,1-2.2,2.3-3.9c1.1-1.4,2.6-2.5,4.4-3.3c1.5-0.6,2.2-1.2,2.2-1.6c0-0.7-0.5-1.5-1.6-2.2c-1.1-0.8-1.8-1.1-2.2-1.1    c-0.1,0-0.5,0.1-1.2,0.3c-0.7,0.2-1.2,0.3-1.6,0.3c-0.5,0-1-0.1-1.5-0.4C22.3,73,22,72.6,22,72.1c0-0.7,0.3-1,0.9-1    c0.2,0,0.6,0.1,1.3,0.3c0.2,0.1,0.4,0.1,0.6,0.1c0.6,0,1.5-0.3,2.8-0.9s2.7-1.3,4-2c0.6,0,1.6,0.7,3.1,2c1.7,1.5,2.6,2.8,2.6,4    v17.9c0,0.2,0.1,0.6,0.4,1.2C38,93.7,38.2,94,38.4,94.4z M30.7,92.2l-0.2-12.6c-1,0.4-1.8,1.2-2.5,2.5c-0.6,1.3-1,2.4-1,3.3    c0,1.5,0.3,3,1,4.6c0.7,1.6,1.3,2.4,1.9,2.4C30.1,92.3,30.3,92.3,30.7,92.2z"/>
            <path fill="#06a0da" d="M59.7,93.8c0,0.4-0.8,1.2-2.3,2.4c-1.5,1.2-2.5,1.8-2.8,1.8c-0.3,0-0.8-0.6-1.6-1.7c-0.9-1.2-1.4-2.2-1.4-3.1    V76.5c0-0.5-0.2-1.1-0.5-1.9c-0.4-0.8-0.8-1.1-1.3-1.1c-0.3,0-0.5,0.2-0.8,0.5c-0.2,0.4-0.4,0.6-0.4,0.8v22.3h-7.3V74.7    c0-0.5-0.2-1-0.7-1.6c-0.4-0.6-0.7-0.9-0.7-0.9c0-0.2,0.9-0.8,2.7-1.8c1.8-1,2.9-1.5,3.1-1.5c0.5,0,1.1,0.6,1.8,1.7    c0.6,1.1,1.1,1.7,1.3,1.7c0.4,0,1.6-0.6,3.7-1.7c2-1.1,3.1-1.7,3.1-1.7c0.4,0,0.9,0.5,1.6,1.4c0.8,1.1,1.2,2.3,1.2,3.5v16.7    c0,0.4,0.1,0.9,0.4,1.5C59.2,92.6,59.4,93.2,59.7,93.8z"/>
            <path fill="#06a0da" d="M80.8,94c-0.3,0.4-1.3,1.2-2.9,2.2c-1,0.6-1.6,0.9-2,0.9c-0.7,0-1.3-0.6-1.9-1.7c-0.6-1.1-1.1-1.7-1.4-1.7    c-0.2,0-1,0.6-2.2,1.7c-1.3,1.1-2.1,1.7-2.4,1.7c-0.6,0-1.5-0.6-2.7-1.9c-2.8-3-4.1-6.7-4.1-11.1c0-0.9,0.3-2.1,0.8-3.8    c0.5-1.6,1.1-3.1,1.8-4.2c0.3-0.5,1.4-1.9,3.3-4.1c2-2.4,3.2-3.6,3.6-3.6c0.3,0,0.6,0.1,0.9,0.4c0.3,0.2,0.5,0.4,0.7,0.5    c0.1-0.1,0.2-0.2,0.3-0.3s0.2-0.3,0.2-0.6V63c0.6-0.6,1.5-1,2.7-1.3c1.2-0.2,2.2-0.5,2.9-0.8h1v30.4c0,0.4,0.1,0.8,0.4,1.3    C80,93.1,80.4,93.5,80.8,94z M72.5,77.9c0-0.3-0.4-0.9-1.2-1.8c-0.8-0.9-1.7-1.9-2.8-3c-0.6,0.7-1.1,2-1.5,3.8    c-0.1,0.6-0.2,1.5-0.4,2.6c0,1.9,0.4,3.7,1.1,5.6c1,2.6,2.6,4.6,4.6,6c0-2.3,0-5,0.1-8C72.4,80,72.5,78.3,72.5,77.9z"/>
            <path fill="#06a0da" d="M102.4,98.3c0,1.9-1.1,3.6-3.4,5.4c-2.3,1.7-4.5,2.6-6.7,2.6c-1.2,0-2.5-0.3-3.8-0.8    c-1.3-0.5-1.9-1.1-1.9-1.8c0.4-0.6,0.7-1,0.9-1.3c0.8-0.9,1.6-1.3,2.5-1.3c0.6,0.8,1.2,1.6,1.8,2.3c0.7,0.7,1.5,1,2.5,1    c0.8,0,1.6-0.3,2.4-1c0.8-0.7,1.2-1.5,1.2-2.4c0-0.5-0.6-1.6-1.9-3.5c-1.3-1.9-2.1-2.8-2.4-2.8c-0.4,0-1.1,0.4-2.2,1.3    c-1.1,0.8-1.9,1.3-2.4,1.3c-0.7,0-2-1.3-3.8-3.8c-2.1-3-3.2-6-3.2-8.9c0-2.6,1.3-5.5,4-8.8c0.9-1.2,2.5-2.7,4.8-4.5    c2.2-1.8,3.5-2.7,3.8-2.7c1.4,1.2,2.4,2.1,3.1,2.8c2.1,2,3.1,3.3,3.1,3.9v18.5c0,0.4,0.3,1,0.8,1.8    C102.2,96.3,102.4,97.2,102.4,98.3z M93.4,91.8V76.1c-0.5-0.6-0.8-1.1-1.1-1.4c-0.8-1-1.4-1.5-1.7-1.5c-0.7,0-1.4,1.3-2.2,3.8    c-0.4,1.2-0.5,2.2-0.5,2.8c0,2.3,0.5,4.5,1.5,6.7C90.8,89.4,92.1,91.1,93.4,91.8z"/>
            <path fill="#06a0da" d="M118.7,72.9c0,0.3-0.3,0.9-1,1.6c-1.3,1.5-2.1,2.3-2.4,2.3c-0.2,0-0.5-0.2-0.9-0.7c-0.6-0.7-1.1-1.2-1.7-1.5    v22.8h-7.3V74.5c0-0.3-0.2-0.8-0.6-1.3c-0.4-0.6-0.7-1-1.1-1.2c0.2-0.4,0.9-1.1,2.2-2c1.3-1,2.2-1.5,2.7-1.5c0.4,0,0.9,0.3,1.6,1    c0.6,0.7,1.3,1.3,1.9,2c0.3,0,0.9-0.5,1.9-1.5c1-1,1.5-1.5,1.6-1.5c0.7,0.5,1.2,0.9,1.5,1.2C118.2,70.8,118.7,71.8,118.7,72.9z"/>
            <path fill="#06a0da" d="M137.3,94.4c0,0.2-0.7,0.9-2.2,1.8c-1.4,1-2.3,1.5-2.5,1.5c-0.5,0-1.1-0.5-1.7-1.5c-0.2-0.4-0.5-0.9-0.9-1.7    c-0.8,0.2-1.7,0.7-2.7,1.3c-1.8,1.1-2.8,1.7-3,1.7c-0.3,0-0.8-0.4-1.4-1.3c-1.6-2.1-2.5-4.6-2.5-7.7c0-1.4,0.1-2.6,0.4-3.5    c0.3-0.9,1-2.2,2.3-3.9c1.1-1.4,2.6-2.5,4.4-3.3c1.5-0.6,2.2-1.2,2.2-1.6c0-0.7-0.5-1.5-1.6-2.2c-1.1-0.8-1.8-1.1-2.2-1.1    c-0.1,0-0.5,0.1-1.2,0.3c-0.7,0.2-1.2,0.3-1.6,0.3c-0.5,0-1-0.1-1.5-0.4c-0.5-0.2-0.7-0.6-0.7-1.1c0-0.7,0.3-1,0.9-1    c0.2,0,0.6,0.1,1.3,0.3c0.2,0.1,0.4,0.1,0.6,0.1c0.6,0,1.5-0.3,2.8-0.9c1.3-0.6,2.7-1.3,4-2c0.6,0,1.6,0.7,3.1,2    c1.7,1.5,2.6,2.8,2.6,4v17.9c0,0.2,0.1,0.6,0.4,1.2C136.9,93.7,137.1,94,137.3,94.4z M129.6,92.2l-0.2-12.6    c-1,0.4-1.8,1.2-2.5,2.5s-1,2.4-1,3.3c0,1.5,0.3,3,1,4.6c0.7,1.6,1.3,2.4,1.9,2.4C129,92.3,129.2,92.3,129.6,92.2z"/>
            <path fill="#06a0da" d="M158.6,93.8c0,0.4-0.8,1.2-2.3,2.4c-1.5,1.2-2.5,1.8-2.8,1.8c-0.3,0-0.8-0.6-1.6-1.7    c-0.9-1.2-1.4-2.2-1.4-3.1V76.5c0-0.5-0.2-1.1-0.5-1.9c-0.4-0.8-0.8-1.1-1.3-1.1c-0.3,0-0.5,0.2-0.8,0.5c-0.2,0.4-0.4,0.6-0.4,0.8    v22.3h-7.3V74.7c0-0.5-0.2-1-0.7-1.6c-0.4-0.6-0.7-0.9-0.7-0.9c0-0.2,0.9-0.8,2.7-1.8c1.8-1,2.9-1.5,3.1-1.5    c0.5,0,1.1,0.6,1.8,1.7c0.6,1.1,1.1,1.7,1.3,1.7c0.4,0,1.6-0.6,3.7-1.7c2-1.1,3.1-1.7,3.1-1.7c0.4,0,0.9,0.5,1.6,1.4    c0.8,1.1,1.2,2.3,1.2,3.5v16.7c0,0.4,0.1,0.9,0.4,1.5C158.1,92.6,158.3,93.2,158.6,93.8z"/>
            <path fill="#06a0da" d="M177.2,94.4c0,0.2-0.7,0.9-2.2,1.8c-1.4,1-2.3,1.5-2.5,1.5c-0.5,0-1.1-0.5-1.7-1.5c-0.2-0.4-0.5-0.9-0.9-1.7    c-0.8,0.2-1.7,0.7-2.7,1.3c-1.8,1.1-2.8,1.7-3,1.7c-0.3,0-0.8-0.4-1.4-1.3c-1.6-2.1-2.5-4.6-2.5-7.7c0-1.4,0.1-2.6,0.4-3.5    c0.3-0.9,1-2.2,2.3-3.9c1.1-1.4,2.6-2.5,4.4-3.3c1.5-0.6,2.2-1.2,2.2-1.6c0-0.7-0.5-1.5-1.6-2.2c-1.1-0.8-1.8-1.1-2.2-1.1    c-0.1,0-0.5,0.1-1.2,0.3c-0.7,0.2-1.2,0.3-1.6,0.3c-0.5,0-1-0.1-1.5-0.4c-0.5-0.2-0.7-0.6-0.7-1.1c0-0.7,0.3-1,0.9-1    c0.2,0,0.6,0.1,1.3,0.3c0.2,0.1,0.4,0.1,0.6,0.1c0.6,0,1.5-0.3,2.8-0.9c1.3-0.6,2.7-1.3,4-2c0.6,0,1.6,0.7,3.1,2    c1.7,1.5,2.6,2.8,2.6,4v17.9c0,0.2,0.1,0.6,0.4,1.2C176.8,93.7,176.9,94,177.2,94.4z M169.5,92.2l-0.2-12.6    c-1,0.4-1.8,1.2-2.5,2.5c-0.6,1.3-1,2.4-1,3.3c0,1.5,0.3,3,1,4.6c0.7,1.6,1.3,2.4,1.9,2.4C168.9,92.3,169.1,92.3,169.5,92.2z"/>
            <path fill="#06a0da" d="M188.2,93.8c0,0.3-0.8,0.9-2.3,1.9c-1.6,1-2.5,1.5-2.9,1.5c-0.6,0-1.2-0.5-1.9-1.4c-0.7-1-1-1.8-1-2.5V70.8    h-3v-2.4c2.2,0,4.3-0.9,6.2-2.6c1.6-1.5,2.5-2.9,2.9-4.3h0.7V67c0,0.6,0.4,1.1,1.3,1.4v2.4H187v19.9c0,0.5,0.2,1.2,0.6,1.9    C188,93.4,188.2,93.8,188.2,93.8z"/>
            <path fill="#06a0da" d="M205.1,76.7c0,1.1-1.4,2.8-4.2,5.2c-2.8,2.4-4.2,3.7-4.2,4.1c0,1,2.3,3.2,6.8,6.7c-0.2,0.3-1,1.1-2.6,2.5    c-1.5,1.3-2.4,2-2.7,2c-0.2,0-0.8-0.3-1.6-0.9c-0.8-0.6-1.7-1.4-2.7-2.3c-1.6-1.6-2.8-3.4-3.6-5.6c-0.7-1.8-1-3.4-1-4.9    c0-1,0.2-2.2,0.7-3.6c0.5-1.4,1.2-2.8,2-4.1c0.5-0.7,1.6-2,3.4-3.9c2-2.1,3.3-3.2,3.8-3.2c0.1,0,0.5,0.5,1.3,1.5    c0.6,0.8,1.2,1.7,1.8,2.5c0.1,0.1,0.6,0.8,1.3,1.8C204.7,75.7,205.1,76.5,205.1,76.7z M199.3,79.7c0-0.2-0.3-0.8-1-1.9    c-0.9-1.4-1.7-2.6-2.4-3.5h-0.5c-0.4,0.9-0.6,1.8-0.9,2.7c-0.2,0.9-0.4,1.5-0.4,1.9c0,1.1,0.1,2.1,0.4,3c0.3,0.9,0.6,1.3,1.1,1.3    c0.4,0,1.1-0.5,2.2-1.6C198.8,80.6,199.3,80,199.3,79.7z"/>
            <path fill="#06a0da" d="M226.4,93.8c0,0.4-0.8,1.2-2.3,2.4c-1.5,1.2-2.5,1.8-2.8,1.8c-0.3,0-0.8-0.6-1.6-1.7    c-0.9-1.2-1.4-2.2-1.4-3.1V76.5c0-0.5-0.2-1.1-0.5-1.9c-0.4-0.8-0.8-1.1-1.3-1.1c-0.3,0-0.5,0.2-0.8,0.5c-0.2,0.4-0.4,0.6-0.4,0.8    v22.3h-7.3V74.7c0-0.5-0.2-1-0.7-1.6c-0.4-0.6-0.7-0.9-0.7-0.9c0-0.2,0.9-0.8,2.7-1.8c1.8-1,2.9-1.5,3.1-1.5    c0.5,0,1.1,0.6,1.8,1.7c0.6,1.1,1.1,1.7,1.3,1.7c0.4,0,1.6-0.6,3.7-1.7c2-1.1,3.1-1.7,3.1-1.7c0.4,0,0.9,0.5,1.6,1.4    c0.8,1.1,1.2,2.3,1.2,3.5v16.7c0,0.4,0.1,0.9,0.4,1.5C225.9,92.6,226.1,93.2,226.4,93.8z"/>
	</g>
        <g>
		<path fill="#06a0da" d="M25,35.1c0,2.4-0.6,4.6-1.8,6.6c-1,1.7-2.5,3.3-4.4,4.7c-1.4,1.1-3.2,2.2-5.3,3.3h-0.4c1-1.5,2-3,3-4.4    c0.8-1.4,1.2-3.5,1.2-6.3c0-2.4-0.5-4.6-1.4-6.6c-0.5-1-1.3-2-2.4-3c-1.2-1.1-2.2-1.6-3.1-1.6c-0.7,0-1,0.3-1,1v17.6H1V17.4    c0-0.3-0.1-0.5-0.3-0.6S0.2,16.4,0,15.9h21.2v1.5H9.5v8.4c0.1,0.1,0.2,0.2,0.3,0.3c0.1,0.1,0.2,0.1,0.3,0.1c0.5,0,1.5-0.4,2.9-1.3    c1.6-1,3.2-1.9,4.8-2.9c0.3,0,1.1,0.5,2.1,1.6c1.3,1.3,2.5,2.9,3.4,4.5c0.6,1.1,1.1,2.3,1.3,3.4C24.9,32.8,25,34,25,35.1z"/>
            <path fill="#06a0da" d="M38.8,30.1c0,0.9-1.1,2.3-3.3,4.2c-2.2,1.9-3.3,3-3.3,3.3c0,0.8,1.8,2.6,5.4,5.3c-0.1,0.3-0.8,0.9-2.1,2    c-1.2,1.1-1.9,1.6-2.1,1.6c-0.2,0-0.6-0.2-1.3-0.7c-0.7-0.5-1.4-1.1-2.1-1.8c-1.3-1.3-2.2-2.8-2.9-4.5c-0.5-1.4-0.8-2.7-0.8-3.9    c0-0.8,0.2-1.8,0.6-2.9c0.4-1.1,0.9-2.2,1.6-3.3c0.4-0.6,1.3-1.6,2.7-3.1c1.6-1.7,2.6-2.5,3-2.5c0.1,0,0.4,0.4,1,1.2    c0.5,0.7,1,1.3,1.5,2c0.1,0.1,0.5,0.6,1,1.5C38.4,29.3,38.8,29.9,38.8,30.1z M34.1,32.5c0-0.2-0.3-0.7-0.8-1.5    c-0.7-1.1-1.4-2.1-1.9-2.8H31c-0.3,0.7-0.5,1.4-0.7,2.1C30.1,31,30,31.5,30,31.8c0,0.9,0.1,1.7,0.3,2.4c0.2,0.7,0.5,1.1,0.9,1.1    c0.3,0,0.9-0.4,1.7-1.3S34.1,32.7,34.1,32.5z"/>
            <path fill="#06a0da" d="M46,46.5h-5.6V19.2c0.3-0.2,1.2-0.6,2.7-1.3c1.5-0.7,2.5-1,3-1.2V46.5z"/>
            <path fill="#06a0da" d="M54.5,19.7c-0.3,0.6-0.7,1.2-1.4,1.7c-0.8,0.6-1.7,0.9-2.7,0.9c-0.5,0-1.1-0.1-1.7-0.4    c-0.6-0.3-0.9-0.6-0.9-1c0-0.2,0.4-0.7,1.1-1.3c0.8-0.7,1.3-1,1.7-1c0.3,0,0.5,0.1,0.7,0.3C51.6,19.5,52.7,19.7,54.5,19.7z     M55,46.6H49v-18c0-0.2-0.1-0.4-0.2-0.6c-0.2-0.2-0.4-0.6-0.8-1c0.1-0.2,0.8-0.8,2.1-1.9c1.2-1,2-1.6,2.2-1.6c0.4,0,1,0.7,1.7,2    c0.7,1.4,1,2.3,1,3V46.6z"/>
            <path fill="#06a0da" d="M73,47.3c0,1.5-0.9,2.9-2.7,4.3c-1.8,1.4-3.6,2.1-5.4,2.1c-1,0-2-0.2-3-0.6c-1-0.4-1.6-0.9-1.6-1.5    c0.3-0.5,0.6-0.8,0.8-1c0.6-0.7,1.3-1,2-1c0.4,0.7,0.9,1.3,1.5,1.8s1.2,0.8,2,0.8c0.6,0,1.3-0.3,1.9-0.8c0.6-0.5,1-1.2,1-1.9    c0-0.4-0.5-1.3-1.6-2.8c-1-1.5-1.7-2.2-1.9-2.2c-0.3,0-0.9,0.3-1.7,1c-0.8,0.7-1.5,1-1.9,1c-0.6,0-1.6-1-3-3.1    c-1.7-2.4-2.6-4.8-2.6-7.1c0-2,1.1-4.4,3.2-7c0.8-1,2-2.1,3.8-3.6c1.8-1.4,2.8-2.2,3-2.2c1.1,1,1.9,1.7,2.5,2.2    c1.7,1.6,2.5,2.6,2.5,3.1v14.8c0,0.3,0.2,0.8,0.6,1.5C72.8,45.7,73,46.5,73,47.3z M65.7,42.1V29.6c-0.4-0.5-0.6-0.9-0.8-1.1    c-0.6-0.8-1.1-1.2-1.3-1.2c-0.6,0-1.1,1-1.7,3c-0.3,1-0.4,1.7-0.4,2.2c0,1.8,0.4,3.6,1.2,5.4C63.7,40.2,64.7,41.6,65.7,42.1z"/>
            <path fill="#06a0da" d="M87.8,44.3c0,0.2-0.6,0.7-1.7,1.5c-1.1,0.8-1.8,1.2-2,1.2c-0.4,0-0.9-0.4-1.4-1.2c-0.2-0.3-0.4-0.7-0.8-1.3    c-0.6,0.2-1.3,0.5-2.1,1c-1.5,0.9-2.3,1.3-2.4,1.3c-0.2,0-0.6-0.3-1.1-1c-1.3-1.7-2-3.7-2-6.2c0-1.1,0.1-2,0.3-2.8    c0.2-0.7,0.8-1.8,1.9-3.1c0.9-1.1,2-2,3.5-2.6c1.2-0.5,1.8-0.9,1.8-1.3c0-0.6-0.4-1.2-1.3-1.8c-0.9-0.6-1.4-0.9-1.7-0.9    c-0.1,0-0.4,0.1-1,0.3c-0.5,0.2-1,0.3-1.3,0.3c-0.4,0-0.8-0.1-1.2-0.3c-0.4-0.2-0.6-0.5-0.6-0.9c0-0.5,0.3-0.8,0.8-0.8    c0.2,0,0.5,0.1,1.1,0.2c0.2,0.1,0.3,0.1,0.5,0.1c0.4,0,1.2-0.3,2.3-0.8c1.1-0.5,2.1-1,3.2-1.6c0.4,0,1.3,0.5,2.5,1.6    c1.4,1.2,2.1,2.3,2.1,3.2v14.3c0,0.1,0.1,0.4,0.3,0.9C87.4,43.7,87.6,43.9,87.8,44.3z M81.6,42.5l-0.1-10.1c-0.8,0.3-1.5,1-2,2    c-0.5,1.1-0.8,2-0.8,2.6c0,1.2,0.3,2.4,0.8,3.7c0.5,1.3,1,1.9,1.5,1.9C81.1,42.6,81.3,42.5,81.6,42.5z"/>
	</g>
</g>
</svg>
