<svg version="1.1" id="Layer_1" xmlns="http://www.w3.org/2000/svg" xmlns:xlink="http://www.w3.org/1999/xlink" x="0px" y="0px"
	 viewBox="0 0 24 24" style="enable-background:new 0 0 24 24;" xml:space="preserve">
<path id="malt" d="M16.8,10.7c0.2,0.2,0.2,0.4,0.2,0.6c-0.3,1.3-0.6,2.4-0.9,3.1c0,0,0.1,0,0.1,0c0.2-0.1,0.4,0,0.6,0.2
	c0.2,0.2,0.2,0.4,0.2,0.6c-0.1,0.4-0.2,0.8-0.3,1.3s-0.3,0.9-0.5,1.5c-0.2,0.6-0.4,1-0.7,1.2c-0.5,0.5-1,0.7-1.7,0.7
	c-0.4,0-0.8-0.1-1.2-0.3v1.7c0,0.2-0.1,0.3-0.2,0.5c-0.1,0.1-0.3,0.2-0.5,0.2s-0.3-0.1-0.5-0.2c-0.1-0.1-0.2-0.3-0.2-0.5v-1.7
	c-0.4,0.2-0.8,0.3-1.2,0.3c-0.7,0-1.2-0.2-1.7-0.7c-0.5-0.5-1-1.9-1.4-4c0-0.2,0-0.4,0.2-0.6c0.2-0.2,0.4-0.2,0.6-0.2
	c0,0,0.1,0,0.1,0c-0.3-0.8-0.6-1.8-0.9-3.1c0-0.2,0-0.4,0.2-0.6c0.2-0.2,0.4-0.2,0.6-0.2c0,0,0.1,0,0.1,0C7.6,9.7,7.3,8.7,7,7.4
	c0-0.2,0-0.4,0.2-0.6s0.4-0.2,0.6-0.2c0.1,0,0.2,0,0.3,0V3.8c0-0.1,0-0.1,0-0.2c0-0.1,0-0.1,0.1-0.2c0-0.1,0.1-0.1,0.2-0.1
	s0.1-0.1,0.2-0.1s0.1,0,0.2,0c0.2,0,0.3,0.1,0.5,0.2c0.1,0.1,0.2,0.3,0.2,0.5v3.1C9.5,7,9.7,7,9.8,7.1C9.7,6.8,9.6,6.5,9.6,6.2
	c0-0.8,0.6-2.1,1.9-3.9c0.1-0.2,0.3-0.3,0.5-0.3s0.4,0.1,0.5,0.3c1.2,1.8,1.9,3.1,1.9,3.9c0,0.3-0.1,0.6-0.2,0.8
	c0.1,0,0.2-0.1,0.3-0.1V3.8c0-0.2,0.1-0.3,0.2-0.5c0.1-0.1,0.3-0.2,0.5-0.2c0.1,0,0.2,0,0.3,0.1s0.1,0.1,0.2,0.1
	c0.1,0.1,0.1,0.1,0.1,0.2c0,0.1,0,0.2,0,0.3v2.8c0.1,0,0.2,0,0.3,0c0.2-0.1,0.4,0,0.6,0.2C16.9,6.9,17,7.1,17,7.4
	c-0.3,1.3-0.6,2.4-0.9,3.1c0,0,0.1,0,0.1,0C16.4,10.4,16.6,10.5,16.8,10.7z M10.9,8.9c-0.2-0.3-1-0.5-2.4-0.9
	c0.3,1.3,0.6,2.1,0.9,2.4c0.2,0.2,0.5,0.3,0.8,0.3c0.3,0,0.5-0.1,0.8-0.3c0.2-0.2,0.3-0.5,0.3-0.8S11.1,9.2,10.9,8.9z M10.1,14.7
	c0.3,0,0.5-0.1,0.8-0.3c0.2-0.2,0.3-0.5,0.3-0.8s-0.1-0.5-0.3-0.8c-0.2-0.2-1-0.5-2.4-0.8c0.3,1.3,0.6,2.1,0.9,2.4
	C9.6,14.6,9.8,14.7,10.1,14.7z M10.1,18.5c0.3,0,0.5-0.1,0.8-0.3c0.2-0.2,0.3-0.5,0.3-0.8c0-0.3-0.1-0.5-0.3-0.8
	c-0.2-0.2-1-0.5-2.4-0.9c0.3,1.3,0.6,2.1,0.9,2.4C9.6,18.4,9.8,18.5,10.1,18.5z M12,4c-0.7,1.2-1.1,1.9-1.1,2.3
	c0,0.3,0.1,0.5,0.3,0.7c0.2,0.2,0.5,0.3,0.8,0.3s0.5-0.1,0.8-0.3c0.2-0.2,0.3-0.5,0.3-0.7C13.1,5.9,12.7,5.1,12,4z M15.5,8.1
	c-1.3,0.3-2.1,0.6-2.4,0.9c-0.2,0.2-0.3,0.5-0.3,0.8s0.1,0.5,0.3,0.8c0.2,0.2,0.5,0.3,0.8,0.3c0.3,0,0.5-0.1,0.8-0.3
	C14.9,10.2,15.1,9.4,15.5,8.1z M13.1,12.8c-0.2,0.2-0.3,0.5-0.3,0.8s0.1,0.6,0.3,0.8c0.2,0.2,0.5,0.3,0.8,0.3c0.3,0,0.5-0.1,0.8-0.3
	c0.2-0.3,0.5-1,0.9-2.4C14.1,12.3,13.4,12.6,13.1,12.8z M14.6,18.2c0.2-0.2,0.5-1,0.9-2.4c-1.3,0.3-2.1,0.6-2.4,0.9
	c-0.2,0.2-0.3,0.5-0.3,0.8c0,0.3,0.1,0.5,0.3,0.8c0.2,0.2,0.5,0.3,0.8,0.3C14.2,18.5,14.4,18.4,14.6,18.2z"/>
</svg>
