<svg version="1.1" id="Layer_1" xmlns="http://www.w3.org/2000/svg" xmlns:xlink="http://www.w3.org/1999/xlink" x="0px" y="0px"
	 viewBox="0 0 24 24">
<path id="sugar" d="M19.5,6.2c0.8,1.3,0.9,2.6,0.5,4.1s-1.2,2.5-2.5,3.2l-1.7,1c0,0,0,0-0.1,0l-7.9,4.5v0l-2.2,1.3c-0.2,0.1-0.4,0.2-0.7,0.2
	c-0.5,0-0.9-0.2-1.2-0.7c-0.2-0.3-0.2-0.7-0.1-1C3.8,18.5,4,18.2,4.3,18l1.1-0.6l2.5-1.5c0,0,0.1,0,0.1-0.1l2.6-1.5
	c0,0,0.1-0.1,0.2-0.1l5.4-3.1c0.7-0.4,1.1-1,1.3-1.7c0.2-0.8,0-1.5-0.4-2.1c-0.4-0.6-0.9-0.9-1.6-1c-0.7-0.1-1.3,0-1.9,0.3l-0.2,0.1
	c-0.3,0.2-0.7,0.2-1,0.1c-0.4-0.1-0.6-0.3-0.8-0.6c-0.2-0.3-0.2-0.7-0.1-1c0.1-0.4,0.3-0.6,0.6-0.8l0.3-0.2c1.3-0.8,2.6-0.9,4.1-0.5
	C17.6,4.1,18.7,4.9,19.5,6.2z M5.3,19.7l1.7-0.9l-1.4-0.7l-0.9,0.5c-0.2,0.1-0.3,0.2-0.3,0.4c0,0.2,0,0.3,0.1,0.5
	c0.1,0.2,0.2,0.3,0.4,0.3C5,19.8,5.2,19.8,5.3,19.7z M7.6,18.4l1.9-1.1l-1.4-0.7l-1.9,1.1L7.6,18.4z M10.3,16.9l2-1.1L10.9,15
	l-2,1.1L10.3,16.9z M13,15.3l1.9-1.1l-1.4-0.7l-1.9,1.1L13,15.3z M13,6c0.4-0.2,0.7-0.4,1.1-0.4l0.7-1.4c-0.8,0-1.6,0.2-2.4,0.6
	L12.2,5c-0.2,0.1-0.3,0.2-0.3,0.4s0,0.3,0.1,0.5c0.1,0.2,0.2,0.3,0.4,0.3s0.3,0,0.5-0.1L13,6z M15.6,13.8l1.6-0.9
	c0.1-0.1,0.2-0.1,0.3-0.2L16.1,12l-1.9,1.1L15.6,13.8z M15,5.5c0.9,0,1.7,0.4,2.3,1l1-0.8c-0.7-0.8-1.6-1.3-2.6-1.4L15,5.5z
	 M18,12.2c0.6-0.6,1.1-1.3,1.3-2.2c0,0,0,0,0-0.1L18,10c-0.2,0.6-0.6,1.1-1.2,1.5L18,12.2z M19.5,9.3c0.1-1-0.1-1.9-0.6-2.8
	c-0.1-0.1-0.1-0.2-0.2-0.2l-1,0.8c0.4,0.7,0.6,1.4,0.5,2.2H19.5z"/>
</svg>
