<svg version="1.1" id="Layer_1" xmlns="http://www.w3.org/2000/svg" xmlns:xlink="http://www.w3.org/1999/xlink" x="0px" y="0px"
	 viewBox="0 0 24 24">
<path id="e-flask" d="M19.9,18.4l-5.7-9.8V3.1h1.1V2H8.6v1.1h1.1v5.4l-5.7,9.8c-0.4,0.7-0.4,1.4,0,2.1c0.4,0.7,1.1,1,1.8,1h12.2
	c0.8,0,1.4-0.4,1.8-1C20.3,19.8,20.3,19,19.9,18.4z M8,16.1c0-0.4,0.3-0.8,0.8-0.8c0.4,0,0.8,0.3,0.8,0.8c0,0.4-0.3,0.8-0.8,0.8
	C8.3,16.9,8,16.6,8,16.1z M9.5,19.2c-0.4,0-0.8-0.3-0.8-0.8s0.3-0.8,0.8-0.8c0.4,0,0.8,0.3,0.8,0.8S9.9,19.2,9.5,19.2z M13,17.5
	c-0.6,0-1.1-0.5-1.1-1.1c0-0.6,0.5-1.1,1.1-1.1c0.6,0,1.1,0.5,1.1,1.1C14.1,17,13.6,17.5,13,17.5z M8.9,12.4l2-3.5V3.1h2.3v5.8
	l2,3.5H8.9z M16.4,19.2c-0.4,0-0.8-0.3-0.8-0.8s0.3-0.8,0.8-0.8c0.4,0,0.8,0.3,0.8,0.8S16.8,19.2,16.4,19.2z"/>
</svg>
