<svg version="1.1" id="Layer_2" xmlns="http://www.w3.org/2000/svg" xmlns:xlink="http://www.w3.org/1999/xlink" x="0px" y="0px" viewBox="0 0 227.44 70.05">
<g id="make-it-double">
    <path d="M6.79,12.87c5.06,0.7,10.25,0.88,15.14,2.21c11.29,3.07,17.42,11.1,19.54,22.36c0.86,4.58,0.74,9.26-0.67,13.66
    c-1.87,5.84-5.24,10.77-10.38,14.43c-3.48,2.47-7.38,3.36-11.46,3.77c-3.54,0.35-7.1,0.51-10.65,0.74
    c-1.54,0.1-1.93-0.2-2.12-1.75c-0.81-6.87-1.59-13.73-2.38-20.6c-0.92-8.02-1.85-16.04-2.78-24.05c-0.34-2.9-0.69-5.79-1.01-8.69
    c-0.14-1.31,0.47-1.95,1.81-1.91c1.64,0.05,3.28,0.15,4.91,0.22C6.75,13.12,6.77,12.99,6.79,12.87z M19.21,52.68
    c3.99-0.2,7.37-4.23,7.53-9.23c0.16-5.11-2.82-9.15-8.38-10.28C18.64,39.7,18.92,46.19,19.21,52.68z"/>
    <path d="M143.77,29.25c2.38-0.17,4.72-0.53,7.05-0.47c9.1,0.22,18.5,7.19,19.63,17.52c0.7,6.44-1.81,11.58-6.67,15.74
    c-3.45,2.95-7.55,4.26-11.91,4.43c-6.22,0.25-12.45,0.11-18.68,0.02c-1.78-0.03-2.04-0.53-2.2-2.33
    c-0.93-10.63-1.87-21.26-2.8-31.88c-0.49-5.65-0.98-11.31-1.46-16.96c-0.12-1.46,0.24-1.91,1.75-2.15
    c4.46-0.69,8.92-1.37,13.38-2.05c1.35-0.21,2.04,0.35,2.04,1.79c-0.01,2.84-0.1,5.67-0.13,8.51
    C143.75,24.08,143.77,26.75,143.77,29.25z M143.56,52.97c2.88,0.31,5.71,0.8,8.59,0.29c2.26-0.41,4-1.55,5.13-3.54
    c1.08-1.91,0.7-4.33-0.83-5.71c-2.66-2.39-9.11-3.1-12.28-1.31c-0.26,0.15-0.58,0.5-0.59,0.76
    C143.55,46.6,143.56,49.74,143.56,52.97z"/>
    <path d="M113.38,63c-3.22,2.82-6.94,3.94-11.04,3.68c-6.53-0.41-11.73-3.25-14.74-9.15c-1.2-2.35-1.71-5.14-2.13-7.79
    c-0.73-4.65-0.19-9.33,0.23-13.99c0.11-1.16,0.64-1.73,1.81-2c3.39-0.76,6.74-1.64,10.11-2.47c1.7-0.42,2.29,0.11,2.19,1.86
    c-0.19,3.14-0.58,6.3-0.41,9.43c0.12,2.26,0.8,4.55,1.57,6.72c0.86,2.44,2.02,3.13,3.81,2.93c2.3-0.25,3.87-1.71,4.38-3.96
    c0.59-2.56,0.29-5.09-0.12-7.62c-0.51-3.11-1.11-6.21-1.67-9.31c-0.29-1.6,0.05-2.13,1.58-2.51c3.52-0.88,7.05-1.76,10.57-2.63
    c1.67-0.41,2.24-0.09,2.41,1.62c0.57,5.73,1.09,11.45,1.61,17.18c0.53,5.81,1.04,11.62,1.56,17.43c0.13,1.49-0.25,2.04-1.7,2.12
    c-2.67,0.15-5.35,0.24-8.03,0.32C114.22,64.9,114.05,64.71,113.38,63z"/>
    <path d="M64.87,28.5c9.87,0.02,17.79,6.45,19.67,15.96c1.43,7.24-2.04,14.74-8.79,19.04c-8.45,5.38-19.87,3.76-26.37-3.76
    c-7.82-9.03-5.26-22.79,5.3-28.64C57.85,29.35,61.22,28.4,64.87,28.5z M64.61,42.73c-3.16,0.01-5.87,2.69-5.83,5.76
    c0.04,2.9,2.86,5.41,6.06,5.39c3.11-0.02,5.84-2.64,5.86-5.62C70.72,45.35,67.82,42.72,64.61,42.73z"/>
    <path d="M209.28,55.51c1.09-0.25,2.27-0.33,3.25-0.8c2.12-1.01,4.16-2.19,6.19-3.37c1.83-1.06,2.15-1.03,3.45,0.61
    c1.48,1.88,2.98,3.76,4.47,5.64c1.14,1.44,1.1,2.02-0.36,3.18c-3.79,3-8.23,4.52-12.89,5.46c-3.81,0.77-7.66,0.9-11.39-0.28
    c-1.94-0.61-3.74-1.68-5.8-2.63c-2.17,1.18-2.17,1.18-3.6-1.41c-1.12-2.03-2.24-4.05-3.35-6.08c-0.95-1.73-0.8-2.38,0.97-3.2
    c1.11-0.51,1.32-1.13,1.17-2.32c-1.73-14.12,9.43-22.47,20.03-21.97c5.4,0.26,9.35,3.14,11.87,7.79c1.12,2.07,1.69,4.45,2.41,6.73
    c0.4,1.28-0.02,2.22-1.29,2.96c-4.92,2.89-9.78,5.89-14.66,8.85c-0.2,0.12-0.39,0.26-0.58,0.39
    C209.21,55.21,209.24,55.36,209.28,55.51z M212.39,40.32c-1.44-1.64-3.76-1.86-6.11-0.69c-2.47,1.23-3.43,3.09-2.85,5.68
    C206.43,43.64,209.4,41.99,212.39,40.32z"/>
    <path d="M171.81,43.42c0-8.04,0-16.08,0-24.12c0-1.91,0.23-2.22,2.13-2.45c4.8-0.58,9.61-1.11,14.41-1.64
    c1.21-0.13,1.84,0.58,1.66,1.85c-0.82,5.69-1.66,11.39-2.48,17.08c-1.4,9.69-2.8,19.38-4.2,29.06c-0.25,1.7-0.5,3.4-0.73,5.1
    c-0.14,1.02-0.65,1.59-1.73,1.6c-2.2,0.03-4.4,0.1-6.6,0.13c-1.81,0.02-2.21-0.38-2.22-2.15c-0.04-6.08-0.07-12.16-0.1-18.24
    c-0.01-2.08,0-4.16,0-6.24C171.9,43.42,171.85,43.42,171.81,43.42z"/>
    <path d="M57.61,12.3c0.32-1.19,0.67-2.12,0.81-3.09c0.19-1.26,0.79-1.85,2.23-1.62c1.05,2.75,2.14,5.61,3.31,8.69
    c0.13-0.49,0.37-0.87,0.26-1.04c-0.9-1.49,0.57-2.57,0.64-3.9c0.08-1.46,0.43-2.91,0.68-4.44c0.84,0,1.63-0.06,2.4,0.03
    c0.26,0.03,0.55,0.39,0.7,0.67c1.01,1.8,2.05,3.58,2.95,5.44c0.52,1.07,0.78,2.26,1.19,3.49c-0.65,0.24-1.39,0.51-2.26,0.83
    c-0.25-0.58-0.49-1.1-0.7-1.64c-0.73-1.84-0.73-1.84-2.91-1.36c-0.08,1.14-0.16,2.32-0.25,3.59c-1.07-0.14-2.07-0.47-3.01-0.34
    c-0.9,0.12-1.74,0.72-2.7,1.16c-0.36-2.02-0.71-3.94-1.11-6.19c-0.41,0.72-0.69,1.17-0.93,1.65c-0.46,0.92-1.03,1.02-1.77,0.3
    c-0.33-0.33-0.71-0.61-1.29-1.12c0.25,2.14,0.47,4,0.71,6.04c-1.28-0.19-2.44-0.36-3.78-0.56c0-2.15,0-4.29,0-6.43
    c0-0.68,0.03-1.36,0.04-2.04c0.01-1.39,0.4-1.84,1.79-1.85c0.27,0,0.62,0.27,0.8,0.52C56.12,10.07,56.78,11.09,57.61,12.3z
    M67.41,9.6c-0.12,0.02-0.24,0.04-0.36,0.06c-0.05,0.99-0.09,1.97-0.14,3.06c0.59-0.12,1.04-0.22,1.6-0.34
    C68.12,11.38,67.76,10.49,67.41,9.6z"/>
    <path d="M74.37,16.34c-1.17-3.24-2.29-6.35-3.45-9.59c0.88-0.41,1.73-0.81,2.68-1.25c0.49,1.65,0.96,3.23,1.43,4.81
    c0.07-0.01,0.15-0.02,0.22-0.03c0.45-1.8,0.91-3.61,1.36-5.41c0.11,0,0.22-0.03,0.26,0c1.11,1.02,2.19,0.74,3.41,0.13
    c1.78-0.89,3.64-1.61,5.64-2.49c0.08,1.1,0.16,2.06,0.24,3.14c-1.38,0.46-2.72,0.9-4.16,1.38c0.18,0.55,0.34,1.03,0.51,1.54
    c1.19-0.16,2.32-0.31,3.5-0.47c0.62,2.57-1.95,1.69-2.76,2.95c0.13,0.45,0.31,1.12,0.54,1.92c1.04-0.66,2-1.27,3.07-1.94
    c0.55,0.67,1.11,1.33,1.8,2.17c-2.12,0.7-4.09,1.35-6.2,2.04c-1.07-2.63-2.1-5.19-3.23-7.98c-0.8,1.51-1.51,2.83-2.27,4.27
    c1.23,0.42,2.39,0.81,3.66,1.24c-0.41,0.95-0.8,1.84-1.25,2.88c-1.12-0.74-2.16-1.43-3.41-2.26c0.16,0.79,0.27,1.38,0.41,2.06
    C75.74,15.73,75.13,16,74.37,16.34z"/>
    <path d="M104.92,0c0.14,1.15,0.26,2.17,0.4,3.32c-1.2,0.12-2.38,0.24-3.65,0.37c0.42,2.6,0.83,5.1,1.26,7.69
    c-1.04,0.29-2.02,0.57-3.08,0.87c-0.33-2.67-0.65-5.27-0.98-8.04c-1.14,0.33-2.19,0.63-3.38,0.97c-0.44-0.88-0.88-1.75-1.37-2.74
    C97.75,1.62,101.24,0.83,104.92,0z"/>
    <path d="M95.84,12.98c-1.63,0.22-2.84,0.39-4.15,0.56c-0.05-0.92-0.76-1.77,0.31-2.49c0.12-0.08,0.02-0.53,0-0.8
    c-0.12-1.31-0.2-2.63-0.38-3.93c-0.11-0.76,0.2-1.63-0.72-2.23c-0.29-0.19-0.19-0.96-0.29-1.61c1.09,0,2.06,0,3.26,0
    C93.56,6.02,93.71,9.57,95.84,12.98z"/>
</g>
</svg>
