<svg version="1.1" id="Layer_1" xmlns="http://www.w3.org/2000/svg" xmlns:xlink="http://www.w3.org/1999/xlink" x="0px" y="0px" viewBox="0 0 150.06 81.31">
<g id="4944N-1322">
	<path fill="#4e0000" d="M125.4,1.09c-1.2,4.21-3.36,7.95-5.68,11.62c-0.65,1.02-1.37,1.53-2.63,1.27c-0.63-0.13-1.33,0.06-2.19,0.11
		c0.35-0.89,0.73-1.71,1.01-2.57c0.97-2.96,1.94-5.91,2.85-8.89c0.22-0.72,0.52-1.02,1.28-1.07c0.99-0.07,1.98-0.31,2.96-0.47
		C123.8,1.09,124.6,1.09,125.4,1.09z"/>
	<path fill="#4e0000" d="M142.01,38.04c-2.45-9.03-4.64-17.67-8.33-25.82c-1.06,0.07-1.11,0.68-1.11,1.41
		c0.02,7.52,0.02,15.04,0.02,22.55c0,1.94-0.29,2.19-2.25,1.85c-0.61-0.11-1.22-0.28-1.95-0.45c-0.02-0.33-0.06-0.71-0.06-1.09
		c0-11.2,0.01-22.39-0.03-33.59c0-1.1,0.34-1.36,1.36-1.31c1.43,0.08,2.9,0.18,4.31-0.02c2.01-0.27,3.26,0.58,4.37,2.12
		c1.54,2.15,1.62,2.13,3.18,0c0.98-1.33,2.37-1.87,3.89-2.03c0.52-0.06,1.19,0.35,1.65,0.72c1.33,1.07,1.73,2.63,2.08,4.22
		c1.1,4.88,1.08,9.84,0.92,14.78c-0.12,3.55-0.6,7.08-0.92,10.62c-0.16,1.74-0.35,3.47-0.46,5.21c-0.05,0.73-0.41,0.83-1.01,0.83
		C145.78,38.03,143.88,38.04,142.01,38.04z M145.57,21.95c0.09,0.01,0.18,0.02,0.26,0.03c0.2-0.8,0.62-1.61,0.57-2.39
		c-0.13-1.93-0.6-3.83-0.71-5.76c-0.11-1.84-0.33-3.6-1.7-4.95c-0.35-0.34-1.03-0.69-1.43-0.58c-0.73,0.2-1.31,0.83-1.04,1.72
		c0.53,1.79,1.11,3.56,1.71,5.33C143.99,17.57,144.79,19.76,145.57,21.95z"/>
	<path fill="#4e0000" d="M148.67,58.81c0,3.28,0.09,6.56-0.04,9.83c-0.06,1.42-0.46,2.86-0.96,4.21c-0.93,2.51-2.03,4.96-3.09,7.43
		c-0.31,0.72-0.88,0.99-1.72,0.98c-3.08-0.05-6.17-0.19-9.23,0.04c-2.08,0.15-3.21-0.74-4.06-2.38c-1.82-3.51-3.12-7.1-2.98-11.2
		c0.2-5.95,0.09-11.91,0.03-17.86c-0.03-3.04,1.45-4.51,4.09-4.65c4.73-0.25,9.5-0.09,14.24,0.15c2.55,0.13,3.7,1.72,3.7,4.23
		C148.66,52.66,148.66,55.73,148.67,58.81C148.67,58.81,148.67,58.81,148.67,58.81z M131.16,53.34c-0.08,0.02-0.17,0.03-0.25,0.05
		c0.3,1.64,0.75,3.27,0.88,4.92c0.18,2.38,1.12,4.36,2.48,6.26c1.76,2.45,3.52,4.91,3.98,8.01c0.08,0.51,0.3,1.32,0.61,1.4
		c0.67,0.17,1.51,0.34,2.04-0.51c0.58-0.93,1.4-1.73,1.83-2.72c2-4.51,1.99-9.19,0.66-13.84c-1.16-4.05-3.08-7.55-7.71-8.68
		c-2.42-0.59-4.88,1.21-4.55,3.2C131.25,52.05,131.16,52.7,131.16,53.34z"/>
	<path fill="#4e0000" d="M37.65,23.71c-0.53,0.17-0.84,0.24-1.12,0.37c-4.96,2.22-9.05-0.16-10.37-4.81
		c-1.09-3.84-1.15-7.77-0.01-11.63c0.65-2.19,1.85-4.11,3.56-5.66c0.25-0.23,0.7-0.33,1.06-0.34c1.48-0.04,2.96,0.04,4.44-0.03
		c1.38-0.07,2.23,0.63,3.11,1.58c2.54,2.76,2.97,6.26,3.56,9.71c0.64,3.72,0.51,7.46,0.22,11.19c-0.3,3.81-0.9,7.57-2.7,11.02
		c-0.27,0.52-0.63,1-0.98,1.48c-0.84,1.15-1.95,1.67-3.4,1.48c-0.75-0.1-1.53-0.12-2.27,0c-1.54,0.25-2.67-0.41-3.68-1.45
		c-2.58-2.64-3.73-5.69-2.7-9.36c0.12-0.44,0.36-0.94,0.7-1.21c0.32-0.25,0.91-0.42,1.28-0.3c0.26,0.09,0.49,0.72,0.48,1.1
		c-0.07,2,1.76,3.92,3.73,3.83c3.11-0.14,4.59-1.22,5.08-3.89C37.79,25.86,37.65,24.87,37.65,23.71z M31.15,19.47
		c0.45,1.25,1.37,2.06,2.74,2.14c1.45,0.08,2.43-0.73,3.13-1.94c1.58-2.73,1.59-5.57,0.38-8.38c-0.49-1.13-1.35-2.18-2.81-2.19
		c-1.28-0.01-2.35,0.63-2.87,1.7c-0.76,1.58-1.52,3.31-1.35,5.03"/>
	<path fill="#4e0000" d="M1.36,27.1c-0.08-4.04,0.5-7.7,1.57-11.29C4.2,11.5,5.82,7.36,8.49,3.67c1-1.38,1.98-2.07,3.81-2.15
		c2.24-0.1,3.3,0.8,4.27,2.62c1.18,2.22,1.38,4.6,1.5,6.96c0.18,3.39,0.08,6.8,0.02,10.19c-0.02,1.07,0.22,1.59,1.39,1.43
		c0.37-0.05,0.76,0.11,0.99,0.15c0.18,1.09,0.42,2.02,0.47,2.96c0.07,1.43-0.36,1.81-1.77,1.51c-0.97-0.2-1.2,0.12-1.19,1.02
		c0.03,3.18,0.01,6.36,0.01,9.78c-3-0.1-6.07,0.32-9.41-0.53c0.14-1.59,0.22-3.3,0.46-4.99c0.21-1.49,0.58-2.95,0.95-4.41
		c0.18-0.71-0.11-0.84-0.69-0.84c-0.68,0.01-1.36,0.03-2.04,0C5.33,27.3,3.41,27.2,1.36,27.1z M11.93,22.5
		c0.1-0.46,0.32-0.95,0.31-1.43c-0.04-2.36-0.04-4.73-0.26-7.08c-0.15-1.52-0.51-3.04-1.85-4.12C9.36,9.25,8.8,9,8.33,10.09
		c-0.38,0.88-0.8,1.75-1.09,2.66c-0.28,0.88-0.44,1.81-0.61,2.73c-0.34,1.84-0.69,3.68-0.95,5.53c-0.14,0.98,0.4,1.49,1.39,1.49
		C8.66,22.5,10.25,22.5,11.93,22.5z"/>
	<path fill="#4e0000" d="M68.83,27.08c-0.05-3.78,0.51-7.17,1.42-10.52c1.27-4.7,3.07-9.14,5.93-13.12c0.95-1.32,1.95-2.11,3.63-1.83
		c0.58,0.1,1.21-0.07,1.79,0.04c0.46,0.08,0.99,0.3,1.28,0.63c1.23,1.4,1.78,3.11,2.2,4.92c1.01,4.28,0.62,8.62,0.7,12.94
		c0.02,0.83,0,1.66,0,2.46c2.37,0.3,2.37,0.3,2.39,2.67c0,0.59,0,1.19,0,1.97c-0.57,0-1.03,0-1.49,0c-0.43,0-0.87,0-1.24,0
		c0,2.58-0.02,5.04,0.01,7.51c0.01,0.67,0.19,1.33,0.28,1.99c0.12,0.85-0.11,1.33-1.12,1.32c-2.74-0.05-5.48-0.02-8.3-0.02
		c-0.33-2.89,0.02-5.41,0.78-7.89c0.17-0.55,0.18-1.17,0.44-1.66c0.71-1.3-0.09-1.25-0.99-1.26C74.02,27.2,71.49,27.13,68.83,27.08z
		 M76.79,22.53C76.79,22.53,76.79,22.53,76.79,22.53c0.68,0.01,1.37,0.08,2.03-0.02c0.3-0.05,0.74-0.38,0.8-0.66
		c0.19-0.84,0.31-1.72,0.29-2.58c-0.03-1.54-0.05-3.1-0.29-4.62c-0.29-1.86-0.55-3.78-2.31-5.01c-0.74-0.52-1.31-0.36-1.57,0.4
		c-0.57,1.67-1.05,3.38-1.53,5.09c-0.32,1.13-0.61,2.27-0.85,3.42c-0.73,3.44-0.5,4.16,2.95,3.99
		C76.47,22.52,76.63,22.53,76.79,22.53z"/>
	<path fill="#4e0000" d="M108.1,37.88c-3.2,0-6.29,0-9.33,0c-0.56-3.76,0.85-7.1,1.59-10.78c-3.09,0-5.98,0-9.23,0
		c0.36-2.98,0.5-5.75,1.08-8.43c0.84-3.93,2.09-7.78,4.02-11.34c0.99-1.83,2.3-3.49,3.5-5.2c0.16-0.23,0.49-0.47,0.75-0.48
		c1.4-0.05,2.86-0.27,4.17,0.06c0.72,0.19,1.29,1.3,1.72,2.11c1.21,2.26,1.68,4.75,1.72,7.28c0.07,3.4,0.04,6.79-0.01,10.19
		c-0.01,0.96,0.13,1.53,1.29,1.42c0.99-0.09,1.67,0.25,1.24,1.48c-0.07,0.19,0.09,0.45,0.12,0.67c0.25,2.09,0.14,2.25-1.96,2.35
		c-0.66,0.03-0.94,0.25-0.92,0.92c0.09,2.63,0.16,5.25,0.23,7.88C108.11,36.66,108.1,37.28,108.1,37.88z M101.92,22.48
		c0.11-0.36,0.36-0.77,0.35-1.18c-0.05-2.47-0.04-4.95-0.29-7.4c-0.16-1.63-0.63-3.26-2.15-4.3c-0.56-0.38-1.06-0.45-1.38,0.19
		c-0.48,0.97-0.93,1.97-1.27,2.99c-0.28,0.86-0.38,1.78-0.54,2.68c-0.34,1.83-0.7,3.65-0.99,5.49c-0.17,1.06,0.41,1.53,1.44,1.53
		C98.65,22.48,100.2,22.48,101.92,22.48z"/>
	<path fill="#4e0000" d="M34.73,57.74c1.26,0.91,2.3,1.68,3.36,2.44c2.2,1.58,2.88,3.95,3.3,6.42c0.53,3.1,0.37,6.17-0.96,9.04
		c-0.82,1.76-1.92,3.4-2.96,5.05c-0.19,0.29-0.72,0.51-1.09,0.52c-2.56,0.04-5.12,0.04-7.68,0.01c-0.37,0-0.83-0.11-1.09-0.35
		c-2.32-2.18-4.38-4.55-4.51-7.95c-0.11-2.68,0.19-5.31,2.55-7.05c0.59-0.43,1.63-0.28,2.46-0.3c0.09,0,0.35,0.66,0.27,0.94
		c-0.18,0.63-0.5,1.22-0.79,1.82c-0.47,0.95-1.11,1.96-0.55,3c1.14,2.14,2.46,3.84,5,2.76c1.48-0.63,1.98-2.07,2.32-3.54
		c0.73-3.1,0.43-6-2-8.28c-1.08-1.02-2.36-1.95-4.05-1.74c-0.17,0.02-0.36-0.08-0.84-0.19c1.43-1.2,2.69-2.23,3.92-3.3
		c0.75-0.65,1.51-1.32,2.18-2.05c0.76-0.83,0.78-1.87-0.08-2.38c-1.53-0.9-3.05-1.92-4.97-1.84c-1.04,0.04-1.59,0.44-1.61,1.55
		c-0.03,1.15-0.01,2.21,0.97,3.07c0.56,0.49,0.18,1.4-0.59,1.37c-0.62-0.02-1.38-0.22-1.81-0.62c-1.9-1.77-2.12-4.03-1.47-6.39
		c0.82-3.03,2.76-4.97,6.03-4.66c1.13,0.11,2.28,0.34,3.35,0.72c1.37,0.5,2.7,1.13,3.97,1.84c2.96,1.66,2.82,4.55,1.13,6.83
		c-0.72,0.96-1.78,1.67-2.7,2.48C35.48,57.21,35.16,57.41,34.73,57.74z"/>
	<path fill="#4e0000" d="M68.47,80.99c-0.59-4.38,0.47-8.28,2.34-11.93c1.58-3.09,3.47-6.03,5.23-9.03c1.29-2.19,2.39-4.42,1.91-7.1
		c-0.43-2.42-3.83-4.36-5.98-3.4c-1.31,0.59-1.77,1.93-1.02,3.49c0.42,0.87,1.11,1.6,1.62,2.43c0.25,0.41,0.64,1.1,0.49,1.33
		c-0.44,0.63-1.17,0.99-1.96,0.49c-3.8-2.41-4.93-5.46-1.93-9.32c1.83-2.36,4.36-3.02,7.17-3.03c3.63-0.01,6.82,0.96,9.15,3.96
		c1.15,1.48,1.44,3.17,1.21,4.93c-0.56,4.18-2.99,7.27-6.15,9.81c-2.62,2.11-5.02,4.38-6.7,7.33c-0.55,0.97-0.94,2.04-1.45,3.19
		c2.65,0.86,5.06,0.52,7.36-0.4c2.73-1.09,3.41-2.5,3.12-5.52c-0.03-0.32,0.35-0.97,0.55-0.98c0.44-0.01,1.08,0.17,1.29,0.5
		c2.01,3.08,1.89,6.19-0.09,9.24c-1.01,1.56-2.05,3.13-3.92,3.82c-0.18,0.07-0.37,0.18-0.56,0.18
		C76.25,80.99,72.34,80.99,68.47,80.99z"/>
	<path fill="#4e0000" d="M90.92,81c-0.61-5.43,1.23-10.02,3.57-14.44c1.3-2.46,2.98-4.72,4.41-7.11c1.31-2.19,2.2-4.52,1.38-7.14
		c-0.66-2.12-3.83-3.6-5.8-2.75c-1.35,0.59-1.9,1.93-1.19,3.19c0.58,1.02,1.3,1.97,1.95,2.95c0.21,0.32,0.36,0.68,0.54,1.02
		c-0.55,0.24-1.19,0.8-1.64,0.68c-1.7-0.44-4.65-3.2-4.11-5.97c0.6-3.09,3.16-5.81,6.31-6.27c3.59-0.53,7.09-0.29,10.09,2.08
		c2.06,1.62,3.11,3.8,2.74,6.62c-0.63,4.74-3.63,7.86-7.13,10.66c-2.96,2.37-5.4,5.11-6.71,8.75c-0.29,0.8-0.05,1.18,0.65,1.25
		c2.67,0.26,5.29,0.07,7.63-1.44c1.61-1.04,2.11-2.61,1.86-4.44c-0.08-0.56-0.31-1.26,0.45-1.34c0.44-0.05,1.13,0.31,1.38,0.7
		c1.57,2.5,2.09,5.15,0.47,7.82c-0.9,1.48-1.92,2.93-3.13,4.15c-0.61,0.62-1.75,0.97-2.66,1C98.3,81.06,94.63,81,90.92,81z"/>
	<path fill="#4e0000" d="M2.53,55.15c1.92-1.35,3.63-2.37,5.12-3.64c1.93-1.64,3.75-3.42,5.48-5.27c0.55-0.59,1.02-0.91,1.79-0.89
		c3.04,0.09,2.69-0.63,2.69,2.61c0.03,10.63-0.01,21.25,0.03,31.88c0,1.1-0.28,1.47-1.4,1.42c-2.23-0.09-4.47-0.07-6.71-0.02
		c-0.9,0.02-1.13-0.3-1.19-1.17c-0.25-3.69,0.75-7.07,2.05-10.48c1.44-3.77,2.22-7.76,1.59-11.86c-0.36-2.33-1.9-3.26-4.22-2.73
		c-1.29,0.29-2.6,0.52-3.91,0.69C3.56,55.73,3.2,55.43,2.53,55.15z"/>
	<path fill="#4e0000" d="M53.02,57.8c-2.3,0.17-5.56-2.59-6.31-5.04c-0.52-1.68,0.45-4.09,1.6-5.02c2.77-2.26,5.88-2.78,9.25-1.48
		c1.8,0.69,3.18,2,3.97,3.63c0.76,1.56,0.32,3.27-0.79,4.68C59.07,56.7,56.82,57.66,53.02,57.8z M54.13,48.17
		c-2.53,0.04-4.27,1.64-4.12,3.48c0.16,1.91,1.93,3.52,4.16,3.51c2.67-0.01,4.12-1.45,4.1-4.08C58.26,49.6,56.23,48.17,54.13,48.17z
		"/>
	<path fill="#4e0000" d="M55.56,14.27c-3.4,0.18-5.76-1.28-7.2-4.26c-0.88-1.82-0.32-3.51,0.86-4.93c3.3-3.99,10.75-3.93,13.72,1.48
		c0.77,1.4,0.41,3.47-1.09,5.14C60.17,13.55,58.04,14.46,55.56,14.27z M59.87,8.29c-0.17-0.5-0.24-1.06-0.52-1.48
		c-0.8-1.2-1.98-1.93-3.41-2.06c-2.01-0.19-4.83,1.32-4.47,3.99c0.19,1.41,1.64,2.8,3.62,3.2C57.28,12.38,59.72,10.49,59.87,8.29z"
		/>
	<path fill="#4e0000" d="M124.08,44.8c-1.2,2.55-2.35,5.14-3.64,7.65c-0.75,1.47-1.69,2.85-2.65,4.19c-0.3,0.41-0.94,0.75-1.45,0.79
		c-0.87,0.07-1.76-0.12-2.69-0.2c0.68-1.86,1.41-3.75,2.05-5.68c0.61-1.84,1.15-3.7,1.64-5.57c0.19-0.73,0.5-1.07,1.27-1.11
		c1.7-0.07,3.4-0.22,5.09-0.34C123.83,44.62,123.95,44.71,124.08,44.8z"/>

	<path fill="#ED1E24" d="M124.05-0.08c-1.2,4.21-3.36,7.95-5.68,11.62c-0.65,1.02-1.37,1.53-2.63,1.27c-0.63-0.13-1.33,0.06-2.19,0.11
		c0.35-0.89,0.73-1.71,1.01-2.57c0.97-2.96,1.94-5.91,2.85-8.89c0.22-0.72,0.52-1.02,1.28-1.07c0.99-0.07,1.98-0.31,2.96-0.47
		C122.45-0.08,123.25-0.08,124.05-0.08z"/>
	<path fill="#ED1E24" d="M140.65,36.86c-2.45-9.03-4.64-17.67-8.33-25.82c-1.06,0.07-1.11,0.68-1.11,1.41
		c0.02,7.52,0.02,15.04,0.02,22.55c0,1.94-0.29,2.19-2.25,1.85c-0.61-0.11-1.22-0.28-1.95-0.45c-0.02-0.33-0.06-0.71-0.06-1.09
		c0-11.2,0.01-22.39-0.03-33.59c0-1.1,0.34-1.36,1.36-1.31c1.43,0.08,2.9,0.18,4.31-0.02c2.01-0.27,3.26,0.58,4.37,2.12
		c1.54,2.15,1.62,2.13,3.18,0c0.98-1.33,2.37-1.87,3.89-2.03c0.52-0.06,1.19,0.35,1.65,0.72c1.33,1.07,1.73,2.63,2.08,4.22
		c1.1,4.88,1.08,9.84,0.92,14.78c-0.12,3.55-0.6,7.08-0.92,10.62c-0.16,1.74-0.35,3.47-0.46,5.21c-0.05,0.73-0.41,0.83-1.01,0.83
		C144.42,36.85,142.53,36.86,140.65,36.86z M144.21,20.78c0.09,0.01,0.18,0.02,0.26,0.03c0.2-0.8,0.62-1.61,0.57-2.39
		c-0.13-1.93-0.6-3.83-0.71-5.76c-0.11-1.84-0.33-3.6-1.7-4.95c-0.35-0.34-1.03-0.69-1.43-0.58c-0.73,0.2-1.31,0.83-1.04,1.72
		c0.53,1.79,1.11,3.56,1.71,5.33C142.63,16.39,143.43,18.58,144.21,20.78z"/>
	<path fill="#ED1E24" d="M147.31,57.64c0,3.28,0.09,6.56-0.04,9.83c-0.06,1.42-0.46,2.86-0.96,4.21c-0.93,2.51-2.03,4.96-3.09,7.43
		c-0.31,0.72-0.88,0.99-1.72,0.98c-3.08-0.05-6.17-0.19-9.23,0.04c-2.08,0.15-3.21-0.74-4.06-2.38c-1.82-3.51-3.12-7.1-2.98-11.2
		c0.2-5.95,0.09-11.91,0.03-17.86c-0.03-3.04,1.45-4.51,4.09-4.65c4.73-0.25,9.5-0.09,14.24,0.15c2.55,0.13,3.7,1.72,3.7,4.23
		C147.3,51.48,147.31,54.56,147.31,57.64C147.31,57.64,147.31,57.64,147.31,57.64z M129.81,52.17c-0.08,0.02-0.17,0.03-0.25,0.05
		c0.3,1.64,0.75,3.27,0.88,4.92c0.18,2.38,1.12,4.36,2.48,6.26c1.76,2.45,3.52,4.91,3.98,8.01c0.08,0.51,0.3,1.32,0.61,1.4
		c0.67,0.17,1.51,0.34,2.04-0.51c0.58-0.93,1.4-1.73,1.83-2.72c2-4.51,1.99-9.19,0.66-13.84c-1.16-4.05-3.08-7.55-7.71-8.68
		c-2.42-0.59-4.88,1.21-4.55,3.2C129.89,50.87,129.81,51.53,129.81,52.17z"/>
	<path fill="#ED1E24" d="M36.29,22.53c-0.53,0.17-0.84,0.24-1.12,0.37c-4.96,2.22-9.05-0.16-10.37-4.81
		c-1.09-3.84-1.15-7.77-0.01-11.63c0.65-2.19,1.85-4.11,3.56-5.66c0.25-0.23,0.7-0.33,1.06-0.34c1.48-0.04,2.96,0.04,4.44-0.03
		c1.38-0.07,2.23,0.63,3.11,1.58c2.54,2.76,2.97,6.26,3.56,9.71c0.64,3.72,0.51,7.46,0.22,11.19c-0.3,3.81-0.9,7.57-2.7,11.02
		c-0.27,0.52-0.63,1-0.98,1.48c-0.84,1.15-1.95,1.67-3.4,1.48c-0.75-0.1-1.53-0.12-2.27,0c-1.54,0.25-2.67-0.41-3.68-1.45
		c-2.58-2.64-3.73-5.69-2.7-9.36c0.12-0.44,0.36-0.94,0.7-1.21c0.32-0.25,0.91-0.42,1.28-0.3c0.26,0.09,0.49,0.72,0.48,1.1
		c-0.07,2,1.76,3.92,3.73,3.83c3.11-0.14,4.59-1.22,5.08-3.89C36.43,24.69,36.29,23.7,36.29,22.53z M29.79,18.29
		c0.45,1.25,1.37,2.06,2.74,2.14c1.45,0.08,2.43-0.73,3.13-1.94c1.58-2.73,1.59-5.57,0.38-8.38c-0.49-1.13-1.35-2.18-2.81-2.19
		c-1.28-0.01-2.35,0.63-2.87,1.7c-0.76,1.58-1.52,3.31-1.35,5.03"/>
	<path fill="#ED1E24" d="M0.01,25.92c-0.08-4.04,0.5-7.7,1.57-11.29c1.27-4.31,2.89-8.44,5.56-12.13c1-1.38,1.98-2.07,3.81-2.15
		c2.24-0.1,3.3,0.8,4.27,2.62c1.18,2.22,1.38,4.6,1.5,6.96c0.18,3.39,0.08,6.8,0.02,10.19c-0.02,1.07,0.22,1.59,1.39,1.43
		c0.37-0.05,0.76,0.11,0.99,0.15c0.18,1.09,0.42,2.02,0.47,2.96c0.07,1.43-0.36,1.81-1.77,1.51c-0.97-0.2-1.2,0.12-1.19,1.02
		c0.03,3.18,0.01,6.36,0.01,9.78c-3-0.1-6.07,0.32-9.41-0.53c0.14-1.59,0.22-3.3,0.46-4.99c0.21-1.49,0.58-2.95,0.95-4.41
		c0.18-0.71-0.11-0.84-0.69-0.84c-0.68,0.01-1.36,0.03-2.04,0C3.97,26.13,2.05,26.03,0.01,25.92z M10.57,21.32
		c0.1-0.46,0.32-0.95,0.31-1.43c-0.04-2.36-0.04-4.73-0.26-7.08c-0.15-1.52-0.51-3.04-1.85-4.12C8,8.08,7.44,7.82,6.97,8.91
		c-0.38,0.88-0.8,1.75-1.09,2.66c-0.28,0.88-0.44,1.81-0.61,2.73c-0.34,1.84-0.69,3.68-0.95,5.53c-0.14,0.98,0.4,1.49,1.39,1.49
		C7.3,21.32,8.89,21.32,10.57,21.32z"/>
	<path fill="#ED1E24" d="M67.48,25.9c-0.05-3.78,0.51-7.17,1.42-10.52c1.27-4.7,3.07-9.14,5.93-13.12c0.95-1.32,1.95-2.11,3.63-1.83
		c0.58,0.1,1.21-0.07,1.79,0.04c0.46,0.08,0.99,0.3,1.28,0.63c1.23,1.4,1.78,3.11,2.2,4.92c1.01,4.28,0.62,8.62,0.7,12.94
		c0.02,0.83,0,1.66,0,2.46c2.37,0.3,2.37,0.3,2.39,2.67c0,0.59,0,1.19,0,1.97c-0.57,0-1.03,0-1.49,0c-0.43,0-0.87,0-1.24,0
		c0,2.58-0.02,5.04,0.01,7.51c0.01,0.67,0.19,1.33,0.28,1.99c0.12,0.85-0.11,1.33-1.12,1.32c-2.74-0.05-5.48-0.02-8.3-0.02
		c-0.33-2.89,0.02-5.41,0.78-7.89c0.17-0.55,0.18-1.17,0.44-1.66c0.71-1.3-0.09-1.25-0.99-1.26C72.67,26.03,70.13,25.96,67.48,25.9z
		 M75.44,21.35C75.44,21.35,75.44,21.36,75.44,21.35c0.68,0.01,1.37,0.08,2.03-0.02c0.3-0.05,0.74-0.38,0.8-0.66
		c0.19-0.84,0.31-1.72,0.29-2.58c-0.03-1.54-0.05-3.1-0.29-4.62c-0.29-1.86-0.55-3.78-2.31-5.01c-0.74-0.52-1.31-0.36-1.57,0.4
		c-0.57,1.67-1.05,3.38-1.53,5.09c-0.32,1.13-0.61,2.27-0.85,3.42c-0.73,3.44-0.5,4.16,2.95,3.99
		C75.12,21.34,75.28,21.35,75.44,21.35z"/>
	<path fill="#ED1E24" d="M106.74,36.7c-3.2,0-6.29,0-9.33,0c-0.56-3.76,0.85-7.1,1.59-10.78c-3.09,0-5.98,0-9.23,0
		c0.36-2.98,0.5-5.75,1.08-8.43c0.84-3.93,2.09-7.78,4.02-11.34c0.99-1.83,2.3-3.49,3.5-5.2c0.16-0.23,0.49-0.47,0.75-0.48
		c1.4-0.05,2.86-0.27,4.17,0.06c0.72,0.19,1.29,1.3,1.72,2.11c1.21,2.26,1.68,4.75,1.72,7.28c0.07,3.4,0.04,6.79-0.01,10.19
		c-0.01,0.96,0.13,1.53,1.29,1.42c0.99-0.09,1.67,0.25,1.24,1.48c-0.07,0.19,0.09,0.45,0.12,0.67c0.25,2.09,0.14,2.25-1.96,2.35
		c-0.66,0.03-0.94,0.25-0.92,0.92c0.09,2.63,0.16,5.25,0.23,7.88C106.76,35.48,106.74,36.11,106.74,36.7z M100.56,21.31
		c0.11-0.36,0.36-0.77,0.35-1.18c-0.05-2.47-0.04-4.95-0.29-7.4c-0.16-1.63-0.63-3.26-2.15-4.3c-0.56-0.38-1.06-0.45-1.38,0.19
		c-0.48,0.97-0.93,1.97-1.27,2.99c-0.28,0.86-0.38,1.78-0.54,2.68c-0.34,1.83-0.7,3.65-0.99,5.49c-0.17,1.06,0.41,1.53,1.44,1.53
		C97.29,21.3,98.84,21.31,100.56,21.31z"/>
	<path fill="#ED1E24" d="M33.37,56.56c1.26,0.91,2.3,1.68,3.36,2.44c2.2,1.58,2.88,3.95,3.3,6.42c0.53,3.1,0.37,6.17-0.96,9.04
		c-0.82,1.76-1.92,3.4-2.96,5.05c-0.19,0.29-0.72,0.51-1.09,0.52c-2.56,0.04-5.12,0.04-7.68,0.01c-0.37,0-0.83-0.11-1.09-0.35
		c-2.32-2.18-4.38-4.55-4.51-7.95c-0.11-2.68,0.19-5.31,2.55-7.05c0.59-0.43,1.63-0.28,2.46-0.3c0.09,0,0.35,0.66,0.27,0.94
		c-0.18,0.63-0.5,1.22-0.79,1.82c-0.47,0.95-1.11,1.96-0.55,3c1.14,2.14,2.46,3.84,5,2.76c1.48-0.63,1.98-2.07,2.32-3.54
		c0.73-3.1,0.43-6-2-8.28c-1.08-1.02-2.36-1.95-4.05-1.74c-0.17,0.02-0.36-0.08-0.84-0.19c1.43-1.2,2.69-2.23,3.92-3.3
		c0.75-0.65,1.51-1.32,2.18-2.05c0.76-0.83,0.78-1.87-0.08-2.38c-1.53-0.9-3.05-1.92-4.97-1.84c-1.04,0.04-1.59,0.44-1.61,1.55
		c-0.03,1.15-0.01,2.21,0.97,3.07c0.56,0.49,0.18,1.4-0.59,1.37c-0.62-0.02-1.38-0.22-1.81-0.62c-1.9-1.77-2.12-4.03-1.47-6.39
		c0.82-3.03,2.76-4.97,6.03-4.66c1.13,0.11,2.28,0.34,3.35,0.72c1.37,0.5,2.7,1.13,3.97,1.84c2.96,1.66,2.82,4.55,1.13,6.83
		c-0.72,0.96-1.78,1.67-2.7,2.48C34.12,56.03,33.8,56.24,33.37,56.56z"/>
	<path fill="#ED1E24" d="M67.11,79.82c-0.59-4.38,0.47-8.28,2.34-11.93c1.58-3.09,3.47-6.03,5.23-9.03c1.29-2.19,2.39-4.42,1.91-7.1
		c-0.43-2.42-3.83-4.36-5.98-3.4c-1.31,0.59-1.77,1.93-1.02,3.49c0.42,0.87,1.11,1.6,1.62,2.43c0.25,0.41,0.64,1.1,0.49,1.33
		c-0.44,0.63-1.17,0.99-1.96,0.49c-3.8-2.41-4.93-5.46-1.93-9.32c1.83-2.36,4.36-3.02,7.17-3.03c3.63-0.01,6.82,0.96,9.15,3.96
		c1.15,1.48,1.44,3.17,1.21,4.93c-0.56,4.18-2.99,7.27-6.15,9.81c-2.62,2.11-5.02,4.38-6.7,7.33c-0.55,0.97-0.94,2.04-1.45,3.19
		c2.65,0.86,5.06,0.52,7.36-0.4c2.73-1.09,3.41-2.5,3.12-5.52c-0.03-0.32,0.35-0.97,0.55-0.98c0.44-0.01,1.08,0.17,1.29,0.5
		c2.01,3.08,1.89,6.19-0.09,9.24c-1.01,1.56-2.05,3.13-3.92,3.82c-0.18,0.07-0.37,0.18-0.56,0.18
		C74.89,79.82,70.99,79.82,67.11,79.82z"/>
	<path fill="#ED1E24" d="M89.56,79.82c-0.61-5.43,1.23-10.02,3.57-14.44c1.3-2.46,2.98-4.72,4.41-7.11c1.31-2.19,2.2-4.52,1.38-7.14
		c-0.66-2.12-3.83-3.6-5.8-2.75c-1.35,0.59-1.9,1.93-1.19,3.19c0.58,1.02,1.3,1.97,1.95,2.95c0.21,0.32,0.36,0.68,0.54,1.02
		c-0.55,0.24-1.19,0.8-1.64,0.68c-1.7-0.44-4.65-3.2-4.11-5.97c0.6-3.09,3.16-5.81,6.31-6.27c3.59-0.53,7.09-0.29,10.09,2.08
		c2.06,1.62,3.11,3.8,2.74,6.62c-0.63,4.74-3.63,7.86-7.13,10.66c-2.96,2.37-5.4,5.11-6.71,8.75c-0.29,0.8-0.05,1.18,0.65,1.25
		c2.67,0.26,5.29,0.07,7.63-1.44c1.61-1.04,2.11-2.61,1.86-4.44c-0.08-0.56-0.31-1.26,0.45-1.34c0.44-0.05,1.13,0.31,1.38,0.7
		c1.57,2.5,2.09,5.15,0.47,7.82c-0.9,1.48-1.92,2.93-3.13,4.15c-0.61,0.62-1.75,0.97-2.66,1C96.94,79.88,93.27,79.82,89.56,79.82z"
	/>
	<path fill="#ED1E24" d="M1.18,53.97C3.1,52.63,4.8,51.6,6.3,50.33c1.93-1.64,3.75-3.42,5.48-5.27c0.55-0.59,1.02-0.91,1.79-0.89
		c3.04,0.09,2.69-0.63,2.69,2.61c0.03,10.63-0.01,21.25,0.03,31.88c0,1.1-0.28,1.47-1.4,1.42c-2.23-0.09-4.47-0.07-6.71-0.02
		c-0.9,0.02-1.13-0.3-1.19-1.17c-0.25-3.69,0.75-7.07,2.05-10.48c1.44-3.77,2.22-7.76,1.59-11.86c-0.36-2.33-1.9-3.26-4.22-2.73
		c-1.29,0.29-2.6,0.52-3.91,0.69C2.2,54.56,1.85,54.26,1.18,53.97z"/>
	<path fill="#ED1E24" d="M51.66,56.63c-2.3,0.17-5.56-2.59-6.31-5.04c-0.52-1.68,0.45-4.09,1.6-5.02c2.77-2.26,5.88-2.78,9.25-1.48
		c1.8,0.69,3.18,2,3.97,3.63c0.76,1.56,0.32,3.27-0.79,4.68C57.71,55.53,55.46,56.49,51.66,56.63z M52.77,47
		c-2.53,0.04-4.27,1.64-4.12,3.48c0.16,1.91,1.93,3.52,4.16,3.51c2.67-0.01,4.12-1.45,4.1-4.08C56.9,48.43,54.87,46.99,52.77,47z"/>
	<path fill="#ED1E24" d="M54.2,13.09c-3.4,0.18-5.76-1.28-7.2-4.26c-0.88-1.82-0.32-3.51,0.86-4.93c3.3-3.99,10.75-3.93,13.72,1.48
		c0.77,1.4,0.41,3.47-1.09,5.14C58.81,12.38,56.68,13.29,54.2,13.09z M58.52,7.11c-0.17-0.5-0.24-1.06-0.52-1.48
		c-0.8-1.2-1.98-1.93-3.41-2.06c-2.01-0.19-4.83,1.32-4.47,3.99c0.19,1.41,1.64,2.8,3.62,3.2C55.92,11.21,58.36,9.31,58.52,7.11z"/>
	<path fill="#ED1E24" d="M122.72,43.62c-1.2,2.55-2.35,5.14-3.64,7.65c-0.75,1.47-1.69,2.85-2.65,4.19c-0.3,0.41-0.94,0.75-1.45,0.79
		c-0.87,0.07-1.76-0.12-2.69-0.2c0.68-1.86,1.41-3.75,2.05-5.68c0.61-1.84,1.15-3.7,1.64-5.57c0.19-0.73,0.5-1.07,1.27-1.11
		c1.7-0.07,3.4-0.22,5.09-0.34C122.47,43.45,122.6,43.53,122.72,43.62z"/>
</g>
</svg>
