<svg version="1.1" id="Layer_1" xmlns="http://www.w3.org/2000/svg" xmlns:xlink="http://www.w3.org/1999/xlink" x="0px" y="0px"
	 viewBox="0 0 24 24" style="enable-background:new 0 0 24 24;" xml:space="preserve">
<path id="hops" d="M19.3,12.1c0.2,0.2,0.2,0.3,0.2,0.6c-0.1,0.8-0.3,1.6-0.6,2.5c-0.5,1.9-1,3.1-1.5,3.6c-0.6,0.6-1.7,0.9-3.4,0.9
	c-0.4,0-0.8,0-1.2,0v1.4c0,0.1,0,0.2-0.1,0.3s-0.1,0.2-0.2,0.2c-0.1,0.1-0.2,0.1-0.3,0.1c-0.2,0-0.3-0.1-0.4-0.2
	c-0.1-0.1-0.2-0.3-0.2-0.4v-1.4c-0.4,0-0.8,0-1.2,0c-1.7,0-2.8-0.3-3.4-0.9c-0.5-0.5-1-1.7-1.5-3.6c-0.2-0.9-0.4-1.7-0.6-2.5
	c0-0.2,0-0.4,0.2-0.6C5.1,12,5.3,11.9,5.5,12c0.2,0,0.4,0.1,0.6,0.1c-0.2-0.9-0.4-1.7-0.6-2.5c0-0.2,0-0.4,0.2-0.6
	c0.1-0.2,0.3-0.2,0.5-0.2c0.2,0,0.5,0.1,0.9,0.2C7,8.5,6.9,7.9,6.8,7.3c0-0.2,0-0.4,0.2-0.6c0.1-0.2,0.3-0.2,0.5-0.2
	C8.1,6.7,8.8,6.8,9.4,7c0.7-1.2,1.4-2.3,2.3-3.4c0.1-0.2,0.3-0.3,0.5-0.3s0.4,0.1,0.5,0.3c0.8,1.1,1.6,2.3,2.3,3.4
	c0.6-0.2,1.3-0.3,1.9-0.4c0.2,0,0.4,0,0.5,0.2c0.1,0.2,0.2,0.3,0.2,0.6c-0.1,0.5-0.2,1.1-0.4,1.8C17.4,9,17.7,8.9,18,8.9
	c0.2,0,0.4,0,0.5,0.2c0.1,0.2,0.2,0.3,0.2,0.6c-0.2,0.8-0.4,1.6-0.6,2.5c0.3-0.1,0.5-0.1,0.6-0.1C19,11.9,19.2,12,19.3,12.1z
	 M11.5,18.5c0-1.8-0.2-3-0.7-3.5c-0.5-0.5-2-1-4.6-1.6c0.5,2.6,1.1,4.1,1.6,4.6c0.4,0.4,1.2,0.5,2.6,0.5
	C10.7,18.5,11.1,18.5,11.5,18.5z M7,10.3c0.2,0.8,0.4,1.5,0.6,2.1c0.2,0,0.3,0.1,0.5,0.1c0.2,0,0.4,0.1,0.5,0.1
	c0.2-0.5,0.5-1.1,0.8-1.8C8.8,10.7,7.9,10.5,7,10.3z M8.2,7.9c0.1,0.5,0.3,1,0.4,1.5c0.5,0.1,1,0.3,1.5,0.5c0.2-0.4,0.4-0.7,0.7-1.1
	C10.2,8.5,9.3,8.2,8.2,7.9z M12.1,14.8c0.1-0.3,0.3-0.6,0.5-0.8c0.3-0.4,1-0.7,1.9-1c-0.5-1.1-1.3-2.5-2.4-4.3
	c-1.1,1.7-1.9,3.1-2.4,4.3c0.9,0.3,1.6,0.6,1.9,1C11.8,14.3,12,14.5,12.1,14.8z M12.1,5c-0.6,0.8-1.1,1.6-1.6,2.4
	c0.3,0.1,0.6,0.2,0.8,0.4c0.1-0.2,0.2-0.3,0.3-0.4c0.1-0.2,0.3-0.3,0.5-0.3c0.2,0,0.4,0.1,0.5,0.3c0.1,0.1,0.2,0.2,0.3,0.4
	c0.2-0.1,0.5-0.2,0.8-0.4C13.3,6.6,12.7,5.8,12.1,5z M16.5,17.9c0.5-0.5,1-2,1.6-4.6c-2.6,0.5-4.1,1.1-4.6,1.6
	c-0.5,0.5-0.7,1.6-0.7,3.5c0.4,0,0.8,0,1.1,0C15.3,18.5,16.2,18.3,16.5,17.9z M15.7,9.4C15.9,9,16,8.5,16.1,8
	c-1.1,0.2-2,0.5-2.5,0.8c0.2,0.4,0.5,0.7,0.7,1.1C14.7,9.7,15.2,9.5,15.7,9.4z M16.7,12.4c0.2-0.6,0.4-1.3,0.6-2.1
	c-1,0.2-1.8,0.4-2.4,0.6c0.4,0.6,0.6,1.2,0.9,1.8c0.2,0,0.3-0.1,0.5-0.1S16.6,12.4,16.7,12.4z"/>
</svg>
